<!-- icon666.com - MILLIONS vector ICONS FREE --><svg viewBox="0 0 512 512" xmlns="http://www.w3.org/2000/svg"><g id="Layer_16" data-name="Layer 16"><path d="m75.08 320.013-9.226 112.319 21.288-29.897 19.777 50.396 43.599-30.348 14.854 30.348 36.762-50.396-62.634-77.157z" fill="#63433b"></path><path d="m436.92 320.013 9.226 112.319-21.288-29.897-19.777 50.396-43.599-30.348-14.854 30.348-36.762-50.396 62.634-77.157z" fill="#63433b"></path><path d="m195.143 156.646h122.069a80.669 80.669 0 0 1 80.669 80.669v61.035a141.7 141.7 0 0 1 -141.7 141.7 141.7 141.7 0 0 1 -141.7-141.7v-61.035a80.669 80.669 0 0 1 80.662-80.669z" fill="#f4dcc6"></path><path d="m256.177 429.744a141.7 141.7 0 0 1 -141.7-141.7v10.306a141.7 141.7 0 0 0 141.7 141.7 141.7 141.7 0 0 0 141.7-141.7v-10.309a141.7 141.7 0 0 1 -141.7 141.703z" fill="#c99673"></path><path d="m317.212 156.646h-122.068a80.668 80.668 0 0 0 -80.67 80.668v2.093h283.407v-2.093a80.668 80.668 0 0 0 -80.669-80.668z" fill="#c99673"></path><circle cx="181.092" cy="274.712" fill="#ecf0f1" r="45.967"></circle><path d="m181.092 228.745a45.967 45.967 0 0 0 -45.967 45.967h91.934a45.967 45.967 0 0 0 -45.967-45.967z" fill="#bdc3c7"></path><ellipse cx="171.222" cy="274.712" fill="#667387" rx="31.319" ry="35.305"></ellipse><ellipse cx="171.222" cy="274.712" fill="#373d4c" rx="15.785" ry="17.794"></ellipse><circle cx="331.263" cy="274.712" fill="#ecf0f1" r="45.967"></circle><path d="m331.263 228.745a45.967 45.967 0 0 0 -45.963 45.967h91.93a45.967 45.967 0 0 0 -45.967-45.967z" fill="#bdc3c7"></path><ellipse cx="321.393" cy="274.712" fill="#667387" rx="31.319" ry="35.305"></ellipse><ellipse cx="321.393" cy="274.712" fill="#373d4c" rx="15.785" ry="17.794"></ellipse><circle cx="150.833" cy="274.712" fill="#ecf0f1" r="10.25"></circle><circle cx="301.004" cy="274.712" fill="#ecf0f1" r="10.25"></circle><path d="m261.078 338.826 15.816-17.974a6.524 6.524 0 0 0 -4.9-10.833h-31.63a6.524 6.524 0 0 0 -4.9 10.833l15.816 17.974a6.524 6.524 0 0 0 9.798 0z" fill="#c99673"></path><ellipse cx="196.877" cy="211.897" fill="#63433b" rx="10.629" ry="31.579" transform="matrix(.454 -.891 .891 .454 -81.328 291.034)"></ellipse><ellipse cx="315.478" cy="211.897" fill="#63433b" rx="31.579" ry="10.629" transform="matrix(.891 -.454 .454 .891 -61.828 166.431)"></ellipse><ellipse cx="256.18" cy="402.435" fill="#c99673" rx="13.666" ry="9.68"></ellipse><path d="m253.769 36.564c-99.72 1.3-179.05 84.423-179.05 184.151v59.36h-.36v22.9a222.853 222.853 0 0 0 93.882 181.742l-15.261-28.158a222.858 222.858 0 0 1 -26.921-106.181 331.947 331.947 0 0 1 28.5-134.57l15.554-35.073a21.908 21.908 0 0 1 32.9-8.85l39.144 28.405 28.555-10.073a21.909 21.909 0 0 1 23.988 6.483l70.782 83.376a232.322 232.322 0 0 1 -14.3 80.254l-4.133 11.227 38.894-34.634v13.454a222.843 222.843 0 0 1 -26.924 106.183l-15.26 28.158a222.853 222.853 0 0 0 93.882-181.742v-84.967a181.461 181.461 0 0 0 -183.872-181.445z" fill="#a36841"></path><path d="m397.273 103.962a30.332 30.332 0 0 0 -29.191 27.622 30.34 30.34 0 0 0 -46.653 18.322 30.292 30.292 0 0 0 -45.969 13.526 30.3 30.3 0 0 0 -38.121 0 30.294 30.294 0 0 0 -45.971-13.526 30.339 30.339 0 0 0 -46.652-18.322 30.334 30.334 0 0 0 -28.683-27.6 185.786 185.786 0 0 0 -27.4 46.158 30.315 30.315 0 0 0 42.927 9.234 30.223 30.223 0 0 0 36 27.1l2.546-5.737a21.909 21.909 0 0 1 32.9-8.851l39.144 28.405 28.555-10.073a21.909 21.909 0 0 1 23.995 6.48l6.871 8.095c.7.048 1.412.092 2.13.092a30.358 30.358 0 0 0 29.579-23.587 30.307 30.307 0 0 0 47.953-21.925 30.316 30.316 0 0 0 43.113-9.54 181.285 181.285 0 0 0 -27.073-45.873z" fill="#b7724b"></path><path d="m305.826 366.958h-.018c-.287 0-7.265-.035-11.152-5.681a13.662 13.662 0 0 1 -1.973-10.258 4.413 4.413 0 1 0 -8.639-1.811 23.3 23.3 0 0 0 1.236 13.192 43.4 43.4 0 0 1 -58.5-.271 23.316 23.316 0 0 0 1.124-12.916 4.413 4.413 0 1 0 -8.639 1.811 13.659 13.659 0 0 1 -1.973 10.257c-3.851 5.594-10.728 5.682-11.142 5.682a.257.257 0 0 0 -.028 0 4.413 4.413 0 0 0 -.018 8.826h.036a23.993 23.993 0 0 0 15.656-6.262 52.206 52.206 0 0 0 68.551.18 24.062 24.062 0 0 0 15.457 6.082h.036a4.413 4.413 0 0 0 -.018-8.826z"></path><path d="m442.133 320.292c.437-5.728.684-11.488.684-17.278v-84.968a186.462 186.462 0 0 0 -188.937-186.446c-49.4.642-95.731 20.775-130.45 56.688a189.638 189.638 0 0 0 -53.53 132.465v57.492a4.976 4.976 0 0 0 -.361 1.868v22.9c0 5.791.247 11.551.685 17.278l-9.178 111.669a5 5 0 0 0 9.056 3.31l15.934-22.377 16.405 41.8a5 5 0 0 0 7.51 2.277l12.15-8.457a227.211 227.211 0 0 0 43.422 40.319 5 5 0 0 0 7.29-6.459l-15.261-28.16a216.852 216.852 0 0 1 -10.714-22.913l1.928-1.341 12.291 25.111a5 5 0 0 0 4.053 2.782c.147.014.293.02.438.02a5 5 0 0 0 4.039-2.054l19.684-26.984a146.482 146.482 0 0 0 133.9.128l19.59 26.856a5 5 0 0 0 4.039 2.054c.145 0 .291-.006.438-.02a5 5 0 0 0 4.054-2.782l12.291-25.111 1.927 1.341a216.455 216.455 0 0 1 -10.71 22.915l-15.26 28.159a5 5 0 0 0 7.29 6.46 227.176 227.176 0 0 0 43.421-40.319l12.15 8.457a5 5 0 0 0 7.511-2.277l16.4-41.8 15.938 22.375a5 5 0 0 0 9.056-3.31zm-354.2 77.217a5.231 5.231 0 0 0 -.611-.037 5 5 0 0 0 -4.072 2.1l-10.75 15.089 4.45-54.18a228.4 228.4 0 0 0 13.79 38.357 5 5 0 0 0 -2.812-1.329zm21.508 47.638-15.87-40.428a228.628 228.628 0 0 0 22.3 35.948zm56.958-1.923-11.209-22.9a5 5 0 0 0 -7.348-1.9l-4.6 3.2a219.04 219.04 0 0 1 -10.281-43.988 147.851 147.851 0 0 0 47.53 46.273zm89.96-8.133a136.885 136.885 0 0 1 -125.069-81.578c-.015-1.033-.049-2.064-.049-3.1a326.862 326.862 0 0 1 5.945-62.169c5.013 15.6 18.456 26.808 34.218 26.808 20.026 0 36.318-18.081 36.318-40.3s-16.292-40.3-36.318-40.3c-.216 0-.429.011-.644.014a41.57 41.57 0 0 1 51.892 40.252 4.413 4.413 0 0 0 8.826 0 50.358 50.358 0 0 0 -21.954-41.566 39.6 39.6 0 0 0 8.3 1c5.5 0 9.813-1.647 11.824-5.592 4.9-9.618-9.268-22.269-25.488-30.54-11.62-5.926-24.44-9.676-32.582-7.793l3.29-7.418a16.911 16.911 0 0 1 25.39-6.831l39.144 28.406a5 5 0 0 0 4.6.668l28.554-10.074a17 17 0 0 1 18.517 5l4.877 5.745c-9.977 7.327-16.424 15.873-12.875 22.833 2.012 3.946 6.32 5.592 11.824 5.592a38.931 38.931 0 0 0 7.821-.905 50.35 50.35 0 0 0 -21.829 41.474 4.413 4.413 0 0 0 4.413 4.413c.058 0 .112-.015.169-.018 1.965 20.182 17.4 35.948 36.1 35.948 18.889 0 34.449-16.087 36.157-36.562l2.926 3.447a226.582 226.582 0 0 1 -13.986 76.7l-4.134 11.227a5 5 0 0 0 8.017 5.462l30.57-27.221v2.307c0 1.3-.038 2.607-.061 3.911a136.876 136.876 0 0 1 -124.708 80.76zm-68.4-210.279a50.05 50.05 0 0 0 -34.832 8.029q2.906-7.534 6.182-14.967l5.674-12.794c3.489 6.947 12.66 14.184 22.973 19.732zm-14.328-24.821c2.73-.825 12.316-.04 25.981 6.928s19.93 14.264 20.867 16.959c-2.733.826-12.318.039-25.981-6.927s-19.932-14.265-20.87-16.96zm-2.23 44.455c14.512 0 26.318 13.6 26.318 30.3s-11.806 30.3-26.318 30.3-26.319-13.6-26.319-30.3 11.803-30.3 26.318-30.3zm120.833-20.568c.645-1.855 3.838-5.895 10.211-10.5l6.487 7.64c-8.666 3.168-14.64 3.482-16.701 2.86zm29.337 20.568a23.114 23.114 0 0 1 8.705 1.711l16.321 19.224a34.376 34.376 0 0 1 1.293 9.37c0 16.709-11.806 30.3-26.319 30.3s-26.318-13.6-26.318-30.3 11.803-30.305 26.315-30.305zm42.946 173.972a5 5 0 0 0 -7.347 1.9l-11.209 22.9-13.985-19.171a147.822 147.822 0 0 0 47.324-45.732 219.045 219.045 0 0 1 -10.185 43.3zm-4.469 47.106 3.546-6.544a228.544 228.544 0 0 0 27.527-108.565v-13.455a5 5 0 0 0 -8.325-3.734l-24.177 21.528a236.493 236.493 0 0 0 12.043-74.641 5 5 0 0 0 -1.189-3.236l-70.785-83.377a27.063 27.063 0 0 0 -29.467-7.961l-26.079 9.2-37.019-26.863a26.91 26.91 0 0 0 -40.4 10.87l-15.553 35.073a334.857 334.857 0 0 0 -28.93 136.6 228.551 228.551 0 0 0 27.52 108.56l3.547 6.546a218.267 218.267 0 0 1 -72.773-162.511v-21.033a4.976 4.976 0 0 0 .361-1.868v-59.36c.005-97.538 78.105-177.905 174.115-179.153a176.462 176.462 0 0 1 178.807 176.446v84.968a218.263 218.263 0 0 1 -72.772 162.51zm42.871-20.377-6.438-4.481a228.553 228.553 0 0 0 22.305-35.951zm26.191-45.575a4.984 4.984 0 0 0 -7.5-.733 228.418 228.418 0 0 0 13.79-38.359l4.451 54.181z"></path></g></svg>