<!-- icon666.com - MILLIONS vector ICONS FREE --><svg viewBox="0 0 512 512" xmlns="http://www.w3.org/2000/svg"><g id="Layer_16" data-name="Layer 16"><path d="m75.08 320.013-9.226 112.319 21.288-29.897 19.777 50.396 43.599-30.348 14.854 30.348 36.762-50.396-62.634-77.157z" fill="#63433b"></path><path d="m436.92 320.013 9.226 112.319-21.288-29.897-19.777 50.396-43.599-30.348-14.854 30.348-36.762-50.396 62.634-77.157z" fill="#63433b"></path><path d="m195.143 156.646h122.069a80.669 80.669 0 0 1 80.669 80.669v61.035a141.7 141.7 0 0 1 -141.7 141.7 141.7 141.7 0 0 1 -141.7-141.7v-61.035a80.669 80.669 0 0 1 80.669-80.669z" fill="#f4dcc6"></path><path d="m256.177 429.744a141.7 141.7 0 0 1 -141.7-141.7v10.306a141.7 141.7 0 0 0 141.7 141.7 141.7 141.7 0 0 0 141.7-141.7v-10.309a141.7 141.7 0 0 1 -141.7 141.703z" fill="#c99673"></path><path d="m317.212 156.646h-122.068a80.668 80.668 0 0 0 -80.67 80.668v2.093h283.407v-2.093a80.668 80.668 0 0 0 -80.669-80.668z" fill="#c99673"></path><circle cx="181.092" cy="274.712" fill="#ecf0f1" r="45.967"></circle><path d="m181.092 228.745a45.967 45.967 0 0 0 -45.967 45.967h91.934a45.967 45.967 0 0 0 -45.967-45.967z" fill="#bdc3c7"></path><ellipse cx="181.092" cy="274.712" fill="#667387" rx="31.319" ry="35.305"></ellipse><ellipse cx="181.092" cy="274.712" fill="#373d4c" rx="15.785" ry="17.794"></ellipse><circle cx="331.263" cy="274.712" fill="#ecf0f1" r="45.967"></circle><path d="m331.263 228.745a45.967 45.967 0 0 0 -45.963 45.967h91.93a45.967 45.967 0 0 0 -45.967-45.967z" fill="#bdc3c7"></path><ellipse cx="331.263" cy="274.712" fill="#667387" rx="31.319" ry="35.305"></ellipse><ellipse cx="331.263" cy="274.712" fill="#373d4c" rx="15.785" ry="17.794"></ellipse><circle cx="160.703" cy="274.712" fill="#ecf0f1" r="10.25"></circle><circle cx="310.874" cy="274.712" fill="#ecf0f1" r="10.25"></circle><path d="m261.078 338.826 15.816-17.974a6.524 6.524 0 0 0 -4.9-10.833h-31.63a6.524 6.524 0 0 0 -4.9 10.833l15.816 17.974a6.524 6.524 0 0 0 9.798 0z" fill="#c99673"></path><ellipse cx="314.938" cy="211.897" fill="#63433b" rx="31.579" ry="10.629" transform="matrix(.981 -.193 .193 .981 -34.922 64.641)"></ellipse><ellipse cx="196.877" cy="211.897" fill="#63433b" rx="10.629" ry="31.579" transform="matrix(.193 -.981 .981 .193 -48.979 364.264)"></ellipse><ellipse cx="256.18" cy="402.435" fill="#c99673" rx="13.666" ry="9.68"></ellipse><path d="m253.769 36.564c-99.72 1.3-179.05 84.423-179.05 184.151v59.36h-.36v22.9a222.853 222.853 0 0 0 93.882 181.742l-15.261-28.158a222.858 222.858 0 0 1 -26.921-106.181 331.947 331.947 0 0 1 28.5-134.57l15.554-35.073a21.908 21.908 0 0 1 32.9-8.85l39.144 28.405 28.555-10.073a21.909 21.909 0 0 1 23.988 6.483l70.782 83.376a232.322 232.322 0 0 1 -14.3 80.254l-4.133 11.227 38.894-34.634v13.454a222.843 222.843 0 0 1 -26.924 106.183l-15.26 28.158a222.853 222.853 0 0 0 93.882-181.742v-84.967a181.461 181.461 0 0 0 -183.872-181.445z" fill="#a36841"></path><path d="m397.273 103.962a30.332 30.332 0 0 0 -29.191 27.622 30.34 30.34 0 0 0 -46.653 18.322 30.292 30.292 0 0 0 -45.969 13.526 30.3 30.3 0 0 0 -38.121 0 30.294 30.294 0 0 0 -45.971-13.526 30.339 30.339 0 0 0 -46.652-18.322 30.334 30.334 0 0 0 -28.683-27.6 185.786 185.786 0 0 0 -27.4 46.158 30.315 30.315 0 0 0 42.927 9.234 30.223 30.223 0 0 0 36 27.1l2.546-5.737a21.909 21.909 0 0 1 32.9-8.851l39.144 28.405 28.555-10.073a21.909 21.909 0 0 1 23.995 6.48l6.871 8.095c.7.048 1.412.092 2.13.092a30.358 30.358 0 0 0 29.579-23.587 30.307 30.307 0 0 0 47.953-21.925 30.316 30.316 0 0 0 43.113-9.54 181.285 181.285 0 0 0 -27.073-45.873z" fill="#b7724b"></path><path d="m300.637 363.638a4.41 4.41 0 0 0 -6.168.953c-2.547 3.477-7.028 4.719-9.472 5.149-3.935.693-8.084.45-12.476.193l-.891-.052c-13.74-.79-27.676-.9-41.42-.32l-.251.01c-3.057.13-5.946.25-8.383-.509-2.023-.63-3.621-2.045-3.887-3.442a4.413 4.413 0 1 0 -8.67 1.652c.889 4.671 4.695 8.585 9.932 10.217 3.9 1.216 7.874 1.049 11.379.9l.249-.011c13.454-.563 27.1-.459 40.544.314l.882.053c2.325.135 4.689.273 7.082.273a42.788 42.788 0 0 0 7.439-.585c6.475-1.14 11.825-4.2 15.064-8.628a4.412 4.412 0 0 0 -.953-6.167z"></path><path d="m180.833 234.617c-20.027 0-36.319 18.081-36.319 40.3s16.292 40.305 36.319 40.305 36.319-18.081 36.319-40.305-16.293-40.3-36.319-40.3zm0 70.609c-14.512 0-26.319-13.6-26.319-30.305s11.807-30.3 26.319-30.3 26.319 13.594 26.319 30.3-11.807 30.305-26.319 30.305z"></path><path d="m442.133 320.462c.437-5.727.684-11.486.684-17.277v-84.968a186.462 186.462 0 0 0 -188.937-186.444c-49.4.642-95.731 20.774-130.45 56.687a189.641 189.641 0 0 0 -53.53 132.464v57.492a4.976 4.976 0 0 0 -.361 1.868v22.9c0 5.791.247 11.551.685 17.278l-9.178 111.669a5 5 0 0 0 9.056 3.31l15.934-22.377 16.405 41.8a5 5 0 0 0 7.51 2.277l12.15-8.456a227.169 227.169 0 0 0 43.422 40.315 5 5 0 0 0 7.29-6.459l-15.261-28.159a216.852 216.852 0 0 1 -10.714-22.918l1.928-1.341 12.291 25.111a5 5 0 0 0 4.053 2.782c.147.014.293.02.438.02a5 5 0 0 0 4.039-2.054l19.684-26.982a146.482 146.482 0 0 0 133.9.128l19.59 26.856a5 5 0 0 0 4.039 2.054c.145 0 .291-.006.438-.02a5 5 0 0 0 4.054-2.782l12.291-25.111 1.928 1.341a216.661 216.661 0 0 1 -10.711 22.92l-15.26 28.158a5 5 0 0 0 7.29 6.46 227.134 227.134 0 0 0 43.421-40.317l12.15 8.456a5 5 0 0 0 7.511-2.277l16.4-41.8 15.934 22.377a5 5 0 0 0 9.056-3.31zm-354.205 77.218a5.231 5.231 0 0 0 -.611-.037 5 5 0 0 0 -4.072 2.1l-10.745 15.089 4.45-54.181a228.418 228.418 0 0 0 13.79 38.359 5 5 0 0 0 -2.812-1.33zm21.508 47.638-15.865-40.428a228.573 228.573 0 0 0 22.3 35.947zm56.958-1.923-11.209-22.9a5 5 0 0 0 -7.348-1.906l-4.6 3.2a219.48 219.48 0 0 1 -10.276-43.98 147.862 147.862 0 0 0 47.525 46.265zm89.959-8.133a136.886 136.886 0 0 1 -125.086-81.614c-.014-1.02-.032-2.041-.032-3.062a324.8 324.8 0 0 1 15.314-98.918 41.531 41.531 0 0 1 76.1 23.044 4.413 4.413 0 1 0 8.826 0 50.454 50.454 0 0 0 -31.057-46.521 83.111 83.111 0 0 0 10.606.748 56.146 56.146 0 0 0 7.3-.443c10.94-1.44 14.075-6.009 14.777-9.588 2.08-10.593-15.016-18.875-32.883-22.383-11.776-2.312-24.025-2.575-31.6.547l6.253-14.1a16.911 16.911 0 0 1 25.39-6.831l39.144 28.405a4.991 4.991 0 0 0 4.6.668l28.554-10.073a17 17 0 0 1 18.517 5l2.022 2.382c-8.987 4.2-15 9.849-13.718 16.382.7 3.579 3.837 8.148 14.777 9.588a56.146 56.146 0 0 0 7.3.443 83.127 83.127 0 0 0 10.475-.731 50.445 50.445 0 0 0 -31.034 46.5 4.414 4.414 0 1 0 8.827 0 41.615 41.615 0 0 1 30.632-40.082l1.185 1.4c-15.444 4.637-26.842 20.31-26.842 38.895 0 22.224 16.292 40.305 36.319 40.305 11.747 0 22.2-6.223 28.844-15.853a226.558 226.558 0 0 1 -13.183 59.438l-4.134 11.227a5 5 0 0 0 8.017 5.462l30.57-27.221v2.306c0 1.29-.017 2.579-.041 3.868a136.876 136.876 0 0 1 -124.723 80.809zm-73.027-210.874c-.742-.032-1.485-.056-2.234-.056a50.07 50.07 0 0 0 -27.894 8.461q2.874-7.422 6.108-14.749l3.066-6.914c1.37 2.541 4.064 5.337 8.991 8.148a64.691 64.691 0 0 0 11.963 5.11zm-11.926-17.588c2.4-1.543 11.833-3.415 26.885-.459s23.076 8.255 24.717 10.59c-2.4 1.542-11.833 3.412-26.886.458s-23.076-8.258-24.716-10.589zm128.465 3.713 6.965 8.205c-9.51.767-15.523-.6-17.369-1.787 1.007-1.431 4.439-3.984 10.404-6.422zm29.044 34.212 28.276 33.307c-1.355 15.256-12.58 27.2-26.181 27.2-14.512 0-26.319-13.6-26.319-30.305 0-15.903 10.688-28.971 24.224-30.206zm35.605 173.867a5 5 0 0 0 -7.347 1.906l-11.209 22.9-13.985-19.17a147.837 147.837 0 0 0 47.327-45.74 219.506 219.506 0 0 1 -10.184 43.3zm-4.469 47.108 3.546-6.544a228.551 228.551 0 0 0 27.527-108.566v-13.459a5 5 0 0 0 -8.325-3.734l-24.177 21.528a236.493 236.493 0 0 0 12.043-74.641 5 5 0 0 0 -1.189-3.237l-70.782-83.376a27.066 27.066 0 0 0 -29.467-7.961l-26.079 9.2-37.019-26.864a26.911 26.911 0 0 0 -40.4 10.871l-15.558 35.073a334.856 334.856 0 0 0 -28.93 136.6 228.555 228.555 0 0 0 27.525 108.56l3.547 6.546a218.267 218.267 0 0 1 -72.773-162.511v-21.033a4.976 4.976 0 0 0 .361-1.868v-59.36c.005-97.538 78.105-177.905 174.115-179.151a176.461 176.461 0 0 1 178.807 176.444v84.968a218.263 218.263 0 0 1 -72.772 162.515zm42.871-20.377-6.438-4.481a228.553 228.553 0 0 0 22.305-35.951zm26.191-45.575a4.984 4.984 0 0 0 -7.5-.733 228.418 228.418 0 0 0 13.793-38.364l4.451 54.181z"></path></g></svg>