<!-- icon666.com - MILLIONS vector ICONS FREE --><svg viewBox="0 0 512 512" xmlns="http://www.w3.org/2000/svg"><g id="Layer_16" data-name="Layer 16"><path d="m90.766 247.723-8.428 77.111 11.389-11.46 8.351 44.439 30.877-33.777-20.651-76.313z" fill="#16a085"></path><path d="m420.475 247.723 8.429 77.111-11.389-11.46-8.352 44.439-30.877-33.777 20.652-76.313z" fill="#16a085"></path><path d="m194.963 156.646h122.069a80.669 80.669 0 0 1 80.668 80.669v61.035a141.7 141.7 0 0 1 -141.7 141.703 141.7 141.7 0 0 1 -141.7-141.7v-61.038a80.669 80.669 0 0 1 80.663-80.669z" fill="#f4dcc6"></path><path d="m256 429.744a141.7 141.7 0 0 1 -141.7-141.7v10.306a141.7 141.7 0 0 0 141.7 141.703 141.7 141.7 0 0 0 141.7-141.7v-10.312a141.7 141.7 0 0 1 -141.7 141.703z" fill="#c99673"></path><path d="m397.7 237.314a80.668 80.668 0 0 0 -80.668-80.668h-122.068a80.67 80.67 0 0 0 -80.67 80.67v2.091h141.967l17.5 58.942v-49.431a9.511 9.511 0 0 1 9.51-9.511h114.429z" fill="#c99673"></path><circle cx="180.912" cy="274.712" fill="#ecf0f1" r="45.967"></circle><path d="m180.912 228.745a45.967 45.967 0 0 0 -45.967 45.967h91.934a45.967 45.967 0 0 0 -45.967-45.967z" fill="#bdc3c7"></path><ellipse cx="188.884" cy="274.332" fill="#414141" rx="31.319" ry="35.305"></ellipse><ellipse cx="188.884" cy="274.332" fill="#ecf0f1" rx="15.785" ry="17.794"></ellipse><circle cx="331.083" cy="274.712" fill="#ecf0f1" r="45.967"></circle><path d="m331.083 228.745a45.967 45.967 0 0 0 -45.967 45.967h91.934a45.967 45.967 0 0 0 -45.967-45.967z" fill="#bdc3c7"></path><ellipse cx="323.111" cy="274.332" fill="#414141" rx="31.319" ry="35.305"></ellipse><g fill="#ecf0f1"><ellipse cx="323.111" cy="274.332" rx="15.785" ry="17.794"></ellipse><circle cx="168.496" cy="274.332" r="10.25"></circle><circle cx="302.722" cy="274.332" r="10.25"></circle></g><path d="m260.9 338.826 15.816-17.974a6.524 6.524 0 0 0 -4.9-10.833h-31.632a6.524 6.524 0 0 0 -4.9 10.833l15.816 17.974a6.524 6.524 0 0 0 9.8 0z" fill="#c99673"></path><ellipse cx="314.758" cy="190.522" fill="#16a085" rx="31.579" ry="10.629" transform="matrix(.981 -.193 .193 .981 -30.808 64.206)"></ellipse><ellipse cx="196.697" cy="190.522" fill="#16a085" rx="10.629" ry="31.579" transform="matrix(.193 -.981 .981 .193 -28.15 346.831)"></ellipse><path d="m253.589 36.564c-99.72 1.294-179.05 84.422-179.05 184.151v77.634l21.747-39.937 8.063 39.937 3.859-6.978a74.554 74.554 0 0 0 10.432 13.164c10.981 10.843 24.294 14.468 32.391 15.808a88.216 88.216 0 0 1 -22.213-33.207 98.763 98.763 0 0 1 -5.218-23.6l25.173-45.525 29.508-46.969a281.355 281.355 0 0 0 95.477 127.31s-10.067-54.526-12.906-83.974c-.346-3.594-.635-7.126-.9-10.63a137.17 137.17 0 0 0 50.742 25 245.07 245.07 0 0 1 -19.058-43.9c-1.159-3.6-2.18-7.1-3.121-10.547a323.164 323.164 0 0 1 99.888 89.19 98.682 98.682 0 0 1 -5.222 23.643 88.216 88.216 0 0 1 -22.213 33.207c8.1-1.34 21.41-4.965 32.391-15.808a72.758 72.758 0 0 0 11.915-15.7q2.817 4.705 5.48 9.515 3.06-18.545 6.122-37.09l20.584 37.09v-80.34a181.461 181.461 0 0 0 -183.871-181.444z" fill="#1abc9c"></path><path d="m424.5 150.671a180.986 180.986 0 0 0 -17.824-33.771c-35.489 28.948-89.791 47.474-150.68 47.474-60.523 0-114.531-18.31-150.031-46.959a185.58 185.58 0 0 0 -17.942 33.855c17.31 19.86 42.484 36.351 72.748 47.638l17.51-27.872a283.239 283.239 0 0 0 17.542 38.064 286.288 286.288 0 0 0 60.177 6.317c1.663 0 3.3-.056 4.954-.083-.032-.317-.068-.647-.1-.959-.346-3.594-.635-7.126-.9-10.63a138.247 138.247 0 0 0 16.315 10.974c8.807-.6 17.428-1.618 25.843-2.973a244.325 244.325 0 0 1 -10.474-26.9c-1.159-3.6-2.18-7.1-3.121-10.547a322.866 322.866 0 0 1 44.383 30.638c38.757-11.064 70.914-30.237 91.6-54.266z" fill="#25e5c0"></path><path d="m231.585 367.742h49.351a0 0 0 0 1 0 0v15.565a24.675 24.675 0 0 1 -24.675 24.675 24.675 24.675 0 0 1 -24.675-24.675v-15.565a0 0 0 0 1 -.001 0z" fill="#ff6d55"></path><rect fill="#d85b4a" height="29.326" rx="1.993" width="3.986" x="254.483" y="374.576"></rect><path d="m294.841 363.329h-77.687a4.413 4.413 0 1 0 0 8.826h9.323v10.928a29.676 29.676 0 0 0 59.351 0v-10.928h9.013a4.413 4.413 0 0 0 0-8.826zm-19.013 19.754a19.676 19.676 0 0 1 -39.351 0v-10.565h39.351z"></path><path d="m386.845 85.006a185.338 185.338 0 0 0 -133.459-53.738c-49.4.642-95.732 20.774-130.45 56.688a189.632 189.632 0 0 0 -53.536 132.462v77.635a5 5 0 0 0 9.391 2.391l1.265-2.325-2.827 25.881a5 5 0 0 0 8.517 4.067l4.685-4.714 6.595 35.092a5 5 0 0 0 8.6 2.45l12.146-13.286c20.367 56.583 74.573 97.152 138.083 97.152 63.289 0 117.343-40.284 137.873-96.557l11.6 12.691a5 5 0 0 0 8.605-2.45l6.595-35.092 4.685 4.714a5 5 0 0 0 8.522-4.067l-3.008-27.524 2.224 4.007a5 5 0 0 0 9.372-2.426v-80.345a185.133 185.133 0 0 0 -55.478-132.706zm-281.84 261.748-6.5-34.6a5 5 0 0 0 -8.46-2.6l-1.32 1.328 3.921-35.876 1.323-2.429 5.344 26.466a5 5 0 0 0 9.257 1.464c.207.265.42.523.63.785a146.166 146.166 0 0 0 5.1 35.294zm150.854 88c-70.634 0-128.908-53.854-135.966-122.654a66.664 66.664 0 0 0 30.183 12.877 4.935 4.935 0 0 0 .819.067 5 5 0 0 0 3.459-8.608 82.93 82.93 0 0 1 -20.979-31.317 91.2 91.2 0 0 1 -4.768-20.858l24.336-44.011 15.192-24.182c.8.546 1.655 1.095 2.617 1.643a71.015 71.015 0 0 0 16.812 6.522q6.588 12.717 14.4 24.723a50.349 50.349 0 0 0 -71.43 45.753 4.413 4.413 0 1 0 8.826 0 41.512 41.512 0 0 1 48.88-40.894c-19.778.323-35.78 18.267-35.78 40.29 0 22.224 16.293 40.305 36.319 40.305 18.652 0 34.058-15.688 36.086-35.8a4.352 4.352 0 0 0 2.016.51 4.414 4.414 0 0 0 4.413-4.414 50.405 50.405 0 0 0 -.822-9 288.323 288.323 0 0 0 40.156 36.349 5 5 0 0 0 7.91-4.913c-.1-.541-10-54.3-12.818-83.26 3.787 2.523 7.69 4.861 11.676 6.994a142.728 142.728 0 0 0 27.09 11.075 50.384 50.384 0 0 0 -23.786 42.761 4.414 4.414 0 0 0 4.413 4.414 4.364 4.364 0 0 0 1.814-.4c2.073 20.056 17.458 35.687 36.073 35.687 20.026 0 36.319-18.081 36.319-40.305 0-21.954-15.9-39.853-35.595-40.284a41.509 41.509 0 0 1 48.909 40.888 4.4 4.4 0 0 0 8.2 2.236 80.671 80.671 0 0 1 -2.487 8.174 82.938 82.938 0 0 1 -20.979 31.317 5 5 0 0 0 4.278 8.541 66.649 66.649 0 0 0 30.187-12.88c-7.057 68.8-65.338 122.657-135.973 122.657zm-82.409-247.143 2.454-3.905c.6-.094 1.239-.178 1.925-.248q1.764 4.191 3.663 8.319a41.111 41.111 0 0 1 -8.042-4.166zm41.646 86.5c0 16.71-11.807 30.305-26.319 30.305s-26.319-13.6-26.319-30.305 11.806-30.311 26.319-30.311 26.323 13.6 26.323 30.308zm100.2-47.227a4.938 4.938 0 0 0 -.366-.86c-3.4-6.124-6.53-12.411-9.388-18.813a92.863 92.863 0 0 0 12.122-1.574c2.228-.437 4.4-.955 6.508-1.526a314.272 314.272 0 0 1 28.2 24.956 50.224 50.224 0 0 0 -37.074-2.183zm7.704 16.916c14.512 0 26.319 13.6 26.319 30.305s-11.803 30.308-26.319 30.308-26.319-13.6-26.319-30.305 11.811-30.308 26.319-30.308zm-21.593-46.43q-1.583-4.011-3.022-8.07 1.524-.653 3.288-1.291 6.085 3.964 11.962 8.189a75.784 75.784 0 0 1 -12.224 1.175zm77.625 61.909q2.043 2.632 4.041 5.307c-.409 3.408-.954 6.629-1.625 9.711a50.119 50.119 0 0 0 -2.412-15.015zm41.887 50.272a5 5 0 0 0 -8.461 2.6l-6.5 34.6-8.715-9.532a146.173 146.173 0 0 0 5.277-35.914c.807-1.011 1.618-2.067 2.415-3.169q.664 1.175 1.3 2.333a5 5 0 0 0 9.309-1.6l3.236-19.609 3.457 31.623zm11.4-30.813-11.213-20.2a5 5 0 0 0 -9.305 1.612l-3.989 24.168a5 5 0 0 0 -7.068 1.825 67.645 67.645 0 0 1 -11.04 14.539 49.552 49.552 0 0 1 -13.534 9.426 87.947 87.947 0 0 0 11.566-21.55 102.583 102.583 0 0 0 5.5-24.841 4.993 4.993 0 0 0 -.942-3.478 326.152 326.152 0 0 0 -101.434-90.57 5 5 0 0 0 -7.308 5.657c1.061 3.88 2.1 7.4 3.186 10.762a250.557 250.557 0 0 0 13.846 34.112 131.937 131.937 0 0 1 -37.684-20.686 5 5 0 0 0 -8.072 4.311c.309 4.093.6 7.5.909 10.734 1.979 20.529 7.491 53.411 10.655 71.477a276.222 276.222 0 0 1 -83.565-117.036 5 5 0 0 0 -8.918-.912l-29.509 46.964c-.05.079-.1.159-.142.241l-25.173 45.524a5.006 5.006 0 0 0 -.6 2.942 102.61 102.61 0 0 0 5.495 24.8 87.91 87.91 0 0 0 11.565 21.55 49.537 49.537 0 0 1 -13.534-9.426 69.4 69.4 0 0 1 -9.69-12.231 5 5 0 0 0 -4.255-2.375h-.12a4.966 4.966 0 0 0 -1.03.133l-5.872-29.082a5 5 0 0 0 -9.292-1.4l-12.352 22.688v-58c0-97.538 78.107-177.9 174.114-179.15a176.462 176.462 0 0 1 178.809 176.446z"></path></g></svg>