<!-- icon666.com - MILLIONS vector ICONS FREE --><svg viewBox="0 0 512 512" xmlns="http://www.w3.org/2000/svg"><g id="Layer_16" data-name="Layer 16"><path d="m90.766 247.723-8.428 77.111 11.389-11.46 8.351 44.439 30.877-33.777-20.651-76.313z" fill="#16a085"></path><path d="m420.475 247.723 8.429 77.111-11.389-11.46-8.352 44.439-30.877-33.777 20.652-76.313z" fill="#16a085"></path><path d="m194.963 156.646h122.069a80.669 80.669 0 0 1 80.668 80.669v61.035a141.7 141.7 0 0 1 -141.7 141.703 141.7 141.7 0 0 1 -141.7-141.7v-61.038a80.669 80.669 0 0 1 80.669-80.669z" fill="#f4dcc6"></path><path d="m256 429.744a141.7 141.7 0 0 1 -141.7-141.7v10.306a141.7 141.7 0 0 0 141.7 141.703 141.7 141.7 0 0 0 141.7-141.7v-10.312a141.7 141.7 0 0 1 -141.7 141.703z" fill="#c99673"></path><path d="m397.7 237.314a80.668 80.668 0 0 0 -80.668-80.668h-122.068a80.67 80.67 0 0 0 -80.67 80.67v2.091h141.967l17.5 58.942v-49.431a9.511 9.511 0 0 1 9.51-9.511h114.429z" fill="#c99673"></path><circle cx="180.912" cy="274.712" fill="#ecf0f1" r="45.967"></circle><path d="m180.912 228.745a45.967 45.967 0 0 0 -45.967 45.967h91.934a45.967 45.967 0 0 0 -45.967-45.967z" fill="#bdc3c7"></path><ellipse cx="180.912" cy="274.712" fill="#414141" rx="31.319" ry="35.305"></ellipse><ellipse cx="180.912" cy="274.712" fill="#ecf0f1" rx="15.785" ry="17.794"></ellipse><circle cx="331.083" cy="274.712" fill="#ecf0f1" r="45.967"></circle><path d="m331.083 228.745a45.967 45.967 0 0 0 -45.967 45.967h91.934a45.967 45.967 0 0 0 -45.967-45.967z" fill="#bdc3c7"></path><ellipse cx="331.083" cy="274.712" fill="#414141" rx="31.319" ry="35.305"></ellipse><g fill="#ecf0f1"><ellipse cx="331.083" cy="274.712" rx="15.785" ry="17.794"></ellipse><circle cx="160.524" cy="274.712" r="10.25"></circle><circle cx="310.694" cy="274.712" r="10.25"></circle></g><path d="m260.9 338.826 15.816-17.974a6.524 6.524 0 0 0 -4.9-10.833h-31.632a6.524 6.524 0 0 0 -4.9 10.833l15.816 17.974a6.524 6.524 0 0 0 9.8 0z" fill="#c99673"></path><path d="m226.879 279.125a4.413 4.413 0 0 1 -4.413-4.413 41.554 41.554 0 0 0 -83.108 0 4.413 4.413 0 0 1 -8.826 0 50.38 50.38 0 0 1 100.76 0 4.413 4.413 0 0 1 -4.413 4.413z" fill="#414141"></path><path d="m377.05 279.125a4.413 4.413 0 0 1 -4.413-4.413 41.554 41.554 0 0 0 -83.107 0 4.414 4.414 0 0 1 -8.827 0 50.38 50.38 0 0 1 100.76 0 4.413 4.413 0 0 1 -4.413 4.413z" fill="#414141"></path><ellipse cx="314.758" cy="200.291" fill="#16a085" rx="31.579" ry="10.629" transform="matrix(.981 -.193 .193 .981 -32.69 64.389)"></ellipse><ellipse cx="196.697" cy="200.291" fill="#16a085" rx="10.629" ry="31.579" transform="matrix(.193 -.981 .981 .193 -37.735 354.717)"></ellipse><ellipse cx="256" cy="402.435" fill="#c99673" rx="13.666" ry="9.68"></ellipse><path d="m253.589 36.564c-99.72 1.294-179.05 84.422-179.05 184.151v77.634l21.747-39.937 8.063 39.937 3.859-6.978a74.554 74.554 0 0 0 10.432 13.164c10.981 10.843 24.294 14.468 32.391 15.808a88.216 88.216 0 0 1 -22.213-33.207 98.763 98.763 0 0 1 -5.218-23.6l25.173-45.525 29.508-46.969a281.355 281.355 0 0 0 95.477 127.31s-10.067-54.526-12.906-83.974c-.346-3.594-.635-7.126-.9-10.63a137.17 137.17 0 0 0 50.742 25 245.07 245.07 0 0 1 -19.058-43.9c-1.159-3.6-2.18-7.1-3.121-10.547a323.164 323.164 0 0 1 99.888 89.19 98.682 98.682 0 0 1 -5.222 23.643 88.216 88.216 0 0 1 -22.213 33.207c8.1-1.34 21.41-4.965 32.391-15.808a72.758 72.758 0 0 0 11.915-15.7q2.817 4.705 5.48 9.515 3.06-18.545 6.122-37.09l20.584 37.09v-80.34a181.461 181.461 0 0 0 -183.871-181.444z" fill="#1abc9c"></path><path d="m424.5 150.671a180.986 180.986 0 0 0 -17.824-33.771c-35.489 28.948-89.791 47.474-150.68 47.474-60.523 0-114.531-18.31-150.031-46.959a185.58 185.58 0 0 0 -17.942 33.855c17.31 19.86 42.484 36.351 72.748 47.638l17.51-27.872a283.239 283.239 0 0 0 17.542 38.064 286.288 286.288 0 0 0 60.177 6.317c1.663 0 3.3-.056 4.954-.083-.032-.317-.068-.647-.1-.959-.346-3.594-.635-7.126-.9-10.63a138.247 138.247 0 0 0 16.315 10.974c8.807-.6 17.428-1.618 25.843-2.973a244.325 244.325 0 0 1 -10.474-26.9c-1.159-3.6-2.18-7.1-3.121-10.547a322.866 322.866 0 0 1 44.383 30.638c38.757-11.064 70.914-30.237 91.6-54.266z" fill="#25e5c0"></path><path d="m275.51 381.567a18.156 18.156 0 0 1 -12.877-5.324 9.383 9.383 0 0 0 -13.271 0 18.232 18.232 0 0 1 -25.753 0l-8.838-8.839a4.413 4.413 0 0 1 6.241-6.24l8.837 8.836a9.4 9.4 0 0 0 13.272 0 18.228 18.228 0 0 1 25.752 0 9.4 9.4 0 0 0 13.272 0l8.838-8.837a4.413 4.413 0 0 1 6.241 6.24l-8.838 8.837a18.15 18.15 0 0 1 -12.876 5.327z" fill="#414141"></path></g></svg>