<!-- icon666.com - MILLIONS vector ICONS FREE --><svg viewBox="0 0 512 512" xmlns="http://www.w3.org/2000/svg"><g id="Layer_16" data-name="Layer 16"><path d="m334.766 235.349h-157.532-102.695v85.632 159.51h82.944v-32.684l18.221 32.684h1.53 157.532 1.53l18.221-32.684v32.684h82.944v-159.51-85.632z" fill="#c0392b"></path><path d="m194.963 156.645h122.069a80.669 80.669 0 0 1 80.668 80.67v61.035a141.7 141.7 0 0 1 -141.7 141.703 141.7 141.7 0 0 1 -141.7-141.7v-61.038a80.669 80.669 0 0 1 80.663-80.67z" fill="#f4dcc6"></path><path d="m256 429.744a141.7 141.7 0 0 1 -141.7-141.7v10.309a141.7 141.7 0 0 0 141.7 141.7 141.7 141.7 0 0 0 141.7-141.7v-10.313a141.7 141.7 0 0 1 -141.7 141.704z" fill="#c99673"></path><path d="m317.031 156.646h-122.068a80.668 80.668 0 0 0 -80.67 80.668v2.093h81.384c1.129-.76 30.535-16.76 46.971-23.337a350.564 350.564 0 0 1 83.113-21.863q1.6.173 3.177.4l49.226 44.8h19.536v-2.093a80.668 80.668 0 0 0 -80.669-80.668z" fill="#c99673"></path><circle cx="180.912" cy="274.711" fill="#ecf0f1" r="45.967"></circle><path d="m180.912 228.745a45.967 45.967 0 0 0 -45.967 45.967h91.933a45.966 45.966 0 0 0 -45.966-45.967z" fill="#bdc3c7"></path><ellipse cx="180.912" cy="274.712" fill="#667387" rx="31.319" ry="35.305"></ellipse><ellipse cx="180.912" cy="274.712" fill="#373d4c" rx="15.785" ry="17.794"></ellipse><circle cx="331.083" cy="274.711" fill="#ecf0f1" r="45.967"></circle><path d="m331.083 228.745a45.966 45.966 0 0 0 -45.967 45.967h91.933a45.966 45.966 0 0 0 -45.966-45.967z" fill="#bdc3c7"></path><ellipse cx="331.083" cy="274.712" fill="#667387" rx="31.319" ry="35.305"></ellipse><ellipse cx="331.083" cy="274.712" fill="#373d4c" rx="15.785" ry="17.794"></ellipse><circle cx="160.523" cy="274.711" fill="#ecf0f1" r="10.25"></circle><circle cx="310.694" cy="274.711" fill="#ecf0f1" r="10.25"></circle><path d="m260.9 338.825 15.816-17.973a6.523 6.523 0 0 0 -4.9-10.833h-31.632a6.524 6.524 0 0 0 -4.9 10.833l15.816 17.973a6.523 6.523 0 0 0 9.8 0z" fill="#c99673"></path><ellipse cx="314.757" cy="200.29" fill="#c0392b" rx="31.579" ry="10.629" transform="matrix(.981 -.193 .193 .981 -32.689 64.389)"></ellipse><ellipse cx="196.696" cy="200.29" fill="#c0392b" rx="10.629" ry="31.579" transform="matrix(.193 -.981 .981 .193 -37.735 354.716)"></ellipse><ellipse cx="256" cy="402.434" fill="#c99673" rx="13.666" ry="9.68"></ellipse><path d="m437.461 218.008a181.462 181.462 0 0 0 -183.873-181.444c-99.72 1.3-179.049 84.423-179.049 184.151v259.776h39.754v-167.37a82.327 82.327 0 0 1 16.864-49.921l.171-.224a272.1 272.1 0 0 1 67.735-62.927 349.572 349.572 0 0 1 129.389-43.3l37.878 61.266 21.088 38.137a82.347 82.347 0 0 1 10.282 39.835v184.5h39.755v-182.143h.006z" fill="#e74c3c"></path><g fill="#ff9994"><path d="m120.9 97.98a185.636 185.636 0 0 0 -15.453 20.183c38.465 17.631 91.708 28.548 150.548 28.548 59.217 0 112.749-11.062 151.27-28.891a182.107 182.107 0 0 0 -15.478-20.108c-36.805 13.988-84.119 22.424-135.787 22.424-51.342 0-98.388-8.325-135.1-22.156z"></path><path d="m92.868 140.324a185.168 185.168 0 0 0 -8.71 21.5c28.349 17.776 69.6 30.987 117.512 36.753a349 349 0 0 1 40.978-19.594c3.38-1.354 6.714-2.593 10.034-3.8-64.247-.451-121.528-13.907-159.814-34.859z"></path><path d="m419.827 139.943c-22.341 12.354-51.25 22.132-84.308 28.228l14.586 23.6c31.244-7.057 58.113-17.515 78.323-30.316a180.085 180.085 0 0 0 -8.601-21.512z"></path></g><path d="m331.083 224.332a50.436 50.436 0 0 0 -50.38 50.379 4.413 4.413 0 0 0 8.826 0 41.554 41.554 0 0 1 83.108 0 4.413 4.413 0 0 0 8.826 0 50.437 50.437 0 0 0 -50.38-50.379z"></path><path d="m293.513 366.931a82.956 82.956 0 0 1 -30.43 6.59c-27.57.595-48.185-12.941-58.019-21.082a4.413 4.413 0 1 0 -5.629 6.8c10.54 8.727 32.4 23.132 61.809 23.132.674 0 1.356-.007 2.038-.023a91.755 91.755 0 0 0 33.657-7.28 4.413 4.413 0 1 0 -3.426-8.134z"></path><path d="m217.152 275.062c0-22.224-16.293-40.305-36.319-40.305s-36.319 18.081-36.319 40.305 16.292 40.305 36.319 40.305 36.319-18.081 36.319-40.305zm-36.319 30.305c-14.512 0-26.319-13.6-26.319-30.305s11.807-30.305 26.319-30.305 26.319 13.595 26.319 30.305-11.807 30.305-26.319 30.305z"></path><path d="m331 234.757c-20.027 0-36.319 18.081-36.319 40.305s16.296 40.305 36.319 40.305 36.319-18.081 36.319-40.305-16.289-40.305-36.319-40.305zm0 70.61c-14.512 0-26.319-13.6-26.319-30.305s11.811-30.305 26.319-30.305 26.319 13.595 26.319 30.305-11.803 30.305-26.319 30.305z"></path><path d="m386.845 85.569a185.132 185.132 0 0 0 -133.461-53.738c-49.4.642-95.73 20.774-130.448 56.688a189.632 189.632 0 0 0 -53.536 132.463v259.775a5 5 0 0 0 5 5h82.944a5 5 0 0 0 5-5v-13.447l8.854 15.882a5 5 0 0 0 4.367 2.565h160.593a5 5 0 0 0 4.367-2.565l8.854-15.882v13.447a5 5 0 0 0 5 5h82.944a5 5 0 0 0 5-5v-262.482a185.131 185.131 0 0 0 -55.478-132.706zm5.717 390.188h-33.183v-27.683a5 5 0 0 0 -9.367-2.435l-16.791 30.118h-154.721l-16.791-30.118a5 5 0 0 0 -9.367 2.435v27.683h-33.19v-123.922a146.694 146.694 0 0 0 273.407 0zm0-177.064c-.042 75.343-61.35 136.627-136.7 136.627-72.559 0-132.082-56.827-136.434-128.311a77.985 77.985 0 0 1 11.151-34.043c-.02.58-.044 1.16-.044 1.745a4.413 4.413 0 0 0 8.826 0 41.3 41.3 0 0 1 5.117-19.954q6.476-7.586 13.473-14.655a41.528 41.528 0 0 1 64.517 34.609 4.414 4.414 0 0 0 8.827 0 50.291 50.291 0 0 0 -56.77-49.96q6.377-5.419 13.1-10.445c1.873.489 3.792.935 5.753 1.321a89.71 89.71 0 0 0 16.954 1.767c11.346 0 20.539-2.865 21.951-10.057.684-3.48-.432-8.7-9.31-14.013q10.561-5.087 21.4-9.429a346.56 346.56 0 0 1 81.4-21.5l13.571 21.949a37.171 37.171 0 0 0 -3.775-.685c-6.763-.891-15.332-.43-24.126 1.3s-16.9 4.539-22.827 7.92c-9.584 5.468-10.759 10.883-10.056 14.462s3.837 8.149 14.778 9.588a56.14 56.14 0 0 0 7.3.444 88.7 88.7 0 0 0 16.83-1.741c8.8-1.727 16.9-4.54 22.827-7.92 4.641-2.648 7.3-5.282 8.737-7.7l12.858 20.8 21.028 38.031a77.52 77.52 0 0 1 9.657 37.421zm-193.784-92.272c.917-.615 1.83-1.237 2.756-1.841q5.078-2.9 10.268-5.633c5.953 2.435 9.378 4.977 10.382 6.408-2.209 1.418-10.384 3.105-23.406 1.066zm141.467-11.2c-1.639 2.335-9.665 7.635-24.716 10.589s-24.484 1.084-26.885-.459c1.64-2.335 9.665-7.635 24.716-10.589s24.485-1.08 26.885.463zm92.078 58.8v44.364.222 177.15h-29.761v-179.5a87.57 87.57 0 0 0 -10.905-42.261l-21.089-38.137c-.04-.07-.08-.141-.123-.209l-37.878-61.267a5.008 5.008 0 0 0 -4.891-2.33 354.555 354.555 0 0 0 -131.232 43.917c-.085.049-.168.1-.25.153a276.327 276.327 0 0 0 -68.966 64.065l-.184.241a87.809 87.809 0 0 0 -17.889 52.959v162.369h-29.755v-254.775c0-97.537 78.107-177.9 174.114-179.151.79-.011 1.576-.016 2.364-.016a176.461 176.461 0 0 1 176.444 176.46z"></path></g></svg>