<!-- icon666.com - MILLIONS vector ICONS FREE --><svg viewBox="0 0 512 512" xmlns="http://www.w3.org/2000/svg"><g id="Layer_16" data-name="Layer 16"><path d="m74.542 218.009-43.46 139.8s35.305-44.2 36.444-36.336 14.805 64.827 14.805 64.827l56.944-47.475 4.555 73.289 68.4-90.638-107.878-103.467z" fill="#f39c12"></path><path d="m437.458 218.009 43.46 139.8s-35.305-44.2-36.444-36.336-14.805 64.827-14.805 64.827l-56.943-47.475-4.556 73.289-68.4-90.639 107.878-103.466z" fill="#f39c12"></path><path d="m194.966 156.646h122.069a80.669 80.669 0 0 1 80.665 80.669v61.035a141.7 141.7 0 0 1 -141.7 141.703 141.7 141.7 0 0 1 -141.7-141.7v-61.038a80.669 80.669 0 0 1 80.666-80.669z" fill="#f4dcc6"></path><path d="m256 429.744a141.7 141.7 0 0 1 -141.7-141.7v10.308a141.7 141.7 0 0 0 141.7 141.701 141.7 141.7 0 0 0 141.7-141.7v-10.312a141.7 141.7 0 0 1 -141.7 141.703z" fill="#c99673"></path><path d="m317.035 156.646h-122.069a80.668 80.668 0 0 0 -80.666 80.668v2.093h283.4v-2.093a80.668 80.668 0 0 0 -80.665-80.668z" fill="#c99673"></path><circle cx="180.915" cy="274.712" fill="#ecf0f1" r="45.967"></circle><path d="m180.915 228.745a45.967 45.967 0 0 0 -45.967 45.967h91.934a45.967 45.967 0 0 0 -45.967-45.967z" fill="#bdc3c7"></path><ellipse cx="180.915" cy="274.712" fill="#414141" rx="31.319" ry="35.305"></ellipse><ellipse cx="180.915" cy="274.712" fill="#313131" rx="15.785" ry="17.794"></ellipse><circle cx="331.086" cy="274.712" fill="#ecf0f1" r="45.967"></circle><path d="m331.086 228.745a45.967 45.967 0 0 0 -45.967 45.967h91.934a45.967 45.967 0 0 0 -45.967-45.967z" fill="#bdc3c7"></path><ellipse cx="331.086" cy="274.712" fill="#414141" rx="31.319" ry="35.305"></ellipse><ellipse cx="331.086" cy="274.712" fill="#313131" rx="15.785" ry="17.794"></ellipse><circle cx="160.526" cy="274.712" fill="#ecf0f1" r="10.25"></circle><circle cx="310.697" cy="274.712" fill="#ecf0f1" r="10.25"></circle><path d="m260.9 338.826 15.817-17.974a6.524 6.524 0 0 0 -4.9-10.833h-31.63a6.523 6.523 0 0 0 -4.9 10.833l15.816 17.974a6.523 6.523 0 0 0 9.797 0z" fill="#c99673"></path><g fill="#414141"><path d="m226.882 279.124a4.412 4.412 0 0 1 -4.413-4.413 41.554 41.554 0 0 0 -83.108 0 4.413 4.413 0 1 1 -8.826 0 50.38 50.38 0 0 1 100.76 0 4.413 4.413 0 0 1 -4.413 4.413z"></path><path d="m377.053 279.124a4.412 4.412 0 0 1 -4.413-4.413 41.554 41.554 0 0 0 -83.108 0 4.413 4.413 0 1 1 -8.826 0 50.38 50.38 0 0 1 100.76 0 4.413 4.413 0 0 1 -4.413 4.413z"></path><path d="m256.8 384.344c-.676 0-1.352-.007-2.035-.023a91.754 91.754 0 0 1 -33.658-7.281 4.413 4.413 0 1 1 3.426-8.134 82.976 82.976 0 0 0 30.431 6.591c27.566.609 48.185-12.943 58.019-21.083a4.413 4.413 0 1 1 5.628 6.8c-10.536 8.724-32.403 23.13-61.811 23.13z"></path></g><ellipse cx="314.761" cy="200.29" fill="#f39c12" rx="31.579" ry="10.629" transform="matrix(.981 -.193 .193 .981 -32.689 64.39)"></ellipse><ellipse cx="196.7" cy="200.29" fill="#f39c12" rx="10.629" ry="31.579" transform="matrix(.193 -.981 .981 .193 -37.733 354.72)"></ellipse><ellipse cx="256.003" cy="402.434" fill="#c99673" rx="13.666" ry="9.68"></ellipse><path d="m256 36.548a181.461 181.461 0 0 0 -181.458 181.461v80.34l29.81-80.34v80.34l44.424-80.34 29.509-46.97 12.368 16.648h-.336l22.862 30.313 60.579 80.34.825-5.92a307.708 307.708 0 0 1 53.869-135.687l37.878 61.267 44.425 80.34v-80.34l26.7 80.34v-80.34a181.461 181.461 0 0 0 -181.455-181.452z" fill="#f1c40f"></path><path d="m360.93 209.27 24.153-24.151 25.817 25.816 23.882-23.881a180.278 180.278 0 0 0 -23.125-62.334l-.757-.757-25.816 25.815-25.816-25.815-25.815 25.815-25.817-25.815-25.816 25.815-25.82-25.815-25.816 25.815-25.815-25.815-25.817 25.815-25.812-25.815-25.815 25.815-25.817-25.815-.758.758a180.284 180.284 0 0 0 -23.124 62.333l23.882 23.881 25.817-25.816 25.815 25.816 1.293-1.293 24.252-38.6 12.368 16.648h-.336l16.037 21.267 23.834-23.835 25.812 25.813 25.816-25.816 19 19a307.7 307.7 0 0 1 27.636-47.375z" fill="#ffeda1"></path></g></svg>