<!-- icon666.com - MILLIONS vector ICONS FREE --><svg id="Layer_5" enable-background="new 0 0 64 64" viewBox="0 0 64 64" xmlns="http://www.w3.org/2000/svg" xmlns:xlink="http://www.w3.org/1999/xlink"><linearGradient id="SVGID_1_" gradientUnits="userSpaceOnUse" x1="32" x2="32" y1="63" y2="1"><stop offset="0" stop-color="#9f2fff"></stop><stop offset="1" stop-color="#0bb1d3"></stop></linearGradient><path d="m14 41c-.552 0-1-.448-1-1s.448-1 1-1 1 .448 1 1-.448 1-1 1zm8 0c.552 0 1-.448 1-1s-.448-1-1-1-1 .448-1 1 .448 1 1 1zm-.211 3.658.105-.211-1.789-.895-.105.212c-.381.762-1.147 1.236-2 1.236s-1.619-.474-2-1.236l-.105-.211-1.789.895.105.211c.722 1.444 2.174 2.341 3.789 2.341s3.067-.897 3.789-2.342zm21.211-28.658c0-.552-.448-1-1-1s-1 .448-1 1 .448 1 1 1 1-.448 1-1zm7-1c-.552 0-1 .448-1 1s.448 1 1 1 1-.448 1-1-.448-1-1-1zm-2 4.764c-.381.762-1.147 1.236-2 1.236s-1.619-.474-2-1.236l-.105-.211-1.789.895.105.211c.722 1.444 2.174 2.341 3.789 2.341s3.067-.897 3.789-2.342l.105-.211-1.789-.895zm15-7.764v20c0 1.654-1.346 3-3 3h-5v1c0 1.654-1.346 3-3 3-.938 0-1.835-.448-2.399-1.199l-2.101-2.801h-12.684c.112.314.184.648.184 1v20c0 1.654-1.346 3-3 3h-5v1c0 1.654-1.346 3-3 3-.938 0-1.835-.448-2.399-1.199l-2.101-2.801h-15.5c-1.654 0-3-1.346-3-3v-20c0-1.654 1.346-3 3-3h2.003c1.453-3.473 4.371-6.18 7.977-7.357-.013-.081-.025-.163-.057-.237-.056-.13-.11-.261-.161-.394-.108-.277-.344-.494-.646-.594-1.265-.414-2.116-1.588-2.116-2.92v-.996c0-1.332.85-2.506 2.115-2.921.303-.1.539-.316.647-.596.05-.131.104-.262.161-.391.119-.273.105-.592-.038-.874-.601-1.188-.372-2.619.57-3.561l.704-.705c.942-.94 2.374-1.171 3.562-.569.281.143.599.155.873.038.128-.056.258-.109.387-.16.283-.11.5-.346.6-.647.416-1.265 1.59-2.116 2.921-2.116h.996c1.332 0 2.505.85 2.921 2.114.099.304.317.539.596.648.133.052.263.105.39.16.255.11.543.095.809-.02.44-1.111 1.52-1.902 2.786-1.902h1.095c.613-4.51 4.48-8 9.155-8h7.5c4.676 0 8.542 3.49 9.155 8h1.095c1.654 0 3 1.346 3 3zm-8 7c1.103 0 2-.897 2-2s-.897-2-2-2zm-20-8.75c0 1.039.228 2.059.656 2.999.422-.152.87-.249 1.344-.249v-2h3.757c2.469 0 4.79-.961 6.536-2.707l.293-.293h2.414c2.757 0 5 2.243 5 5 .474 0 .922.097 1.344.249.428-.939.656-1.959.656-2.999 0-3.998-3.252-7.25-7.25-7.25h-7.5c-3.998 0-7.25 3.252-7.25 7.25zm9.029 17.037c.141.966.966 1.713 1.971 1.713s1.83-.747 1.971-1.713c-.626-.184-1.286-.287-1.971-.287s-1.345.103-1.971.287zm3.971-2.287c2.757 0 5-2.243 5-5v-7c0-1.654-1.346-3-3-3h-1.597c-2.085 1.938-4.784 3-7.646 3h-1.757v7c0 2.757 2.243 5 5 5zm-11-10c-1.103 0-2 .897-2 2s.897 2 2 2zm-6 17c0 .552.449 1 1 1h5.059c.308-2.774 1.884-5.165 4.131-6.594-2.17-.956-3.76-2.982-4.11-5.406h-.08c-2.206 0-4-1.794-4-4 0-1.005.385-1.913.998-2.616-.53-1.059-.85-2.204-.946-3.384h-1.052c-.551 0-1 .448-1 1zm-7-6c2.757 0 5-2.243 5-5s-2.243-5-5-5-5 2.243-5 5 2.243 5 5 5zm1.931 1.723c.596.461 1.148.972 1.656 1.528.008-.003.016-.006.023-.01.442-.191.917-.261 1.39-.228v-3.123c-.836.854-1.889 1.493-3.069 1.833zm3.022 3.304c.016.025.031.051.047.077v-.064c-.016-.004-.031-.01-.047-.013zm-13.021-5.846c.675-.109 1.362-.181 2.068-.181.093 0 .182.012.274.014-.8-1.138-1.274-2.521-1.274-4.014 0-3.859 3.14-7 7-7 1.958 0 3.728.81 5 2.111v-3.123c-.473.033-.949-.037-1.391-.229-.106-.046-.214-.09-.323-.133-.836-.325-1.481-1.013-1.768-1.886-.144-.442-.555-.74-1.02-.74h-.996c-.465 0-.875.297-1.021.739-.287.873-.933 1.561-1.772 1.887-.105.042-.213.086-.32.133-.818.356-1.755.324-2.571-.088-.416-.21-.917-.13-1.245.198l-.704.705c-.33.329-.41.829-.2 1.244.412.814.443 1.752.087 2.572-.045.104-.088.21-.13.317-.327.841-1.015 1.486-1.887 1.773-.442.146-.739.556-.739 1.022v.996c0 .466.297.876.739 1.021.873.287 1.561.933 1.887 1.771.043.109.086.215.132.32.079.183.133.376.174.571zm-8.932 23.819c0 2.052 1.559 3.729 3.552 3.955.694-1.021 1.595-1.885 2.638-2.548-2.464-1.086-4.19-3.547-4.19-6.407v-7h1c3.508 0 6.776-1.571 8.967-4.311l1.107-1.381.758 1.137c1.066 1.6 2.851 2.555 4.773 2.555h1.395v9c0 2.86-1.726 5.321-4.19 6.406 1.043.663 1.944 1.528 2.638 2.548 1.993-.225 3.552-1.902 3.552-3.954v-11c0-6.065-4.935-11-11-11s-11 4.935-11 11zm13 0c2.757 0 5-2.243 5-5v-7.023c-1.922-.149-3.705-1.008-5.016-2.396-2.33 2.572-5.526 4.131-8.984 4.384v5.035c0 2.757 2.243 5 5 5zm-3.971 2.287c.141.966.966 1.713 1.971 1.713s1.83-.747 1.971-1.713c-.626-.184-1.286-.287-1.971-.287s-1.345.103-1.971.287zm-12.029 5.713h5.059c.084-.758.269-1.485.53-2.174-2.629-.638-4.589-3.004-4.589-5.826v-11c0-1.034.134-2.035.363-3h-1.363c-.551 0-1 .448-1 1v20c0 .552.449 1 1 1zm21 1c0-2.452-1.27-4.611-3.185-5.861-.494 1.649-2.008 2.861-3.815 2.861s-3.321-1.212-3.815-2.861c-1.649 1.077-2.812 2.829-3.105 4.861h9.42l2.7 3.601c.188.25.487.399.8.399.551 0 1-.448 1-1zm7-23h-1.363c.229.965.363 1.966.363 3v11c0 2.822-1.96 5.188-4.589 5.826.261.69.446 1.416.53 2.174h5.059c.551 0 1-.448 1-1v-20c0-.552-.449-1-1-1zm21-1c0-2.452-1.27-4.611-3.185-5.861-.494 1.649-2.008 2.861-3.815 2.861s-3.321-1.212-3.815-2.861c-1.649 1.077-2.812 2.829-3.105 4.861h9.42l2.7 3.601c.188.25.487.399.8.399.551 0 1-.448 1-1zm8-22c0-.552-.449-1-1-1h-1.052c-.096 1.181-.416 2.326-.946 3.384.613.704.998 1.612.998 2.616 0 2.206-1.794 4-4 4h-.08c-.349 2.424-1.939 4.45-4.11 5.406 2.247 1.429 3.822 3.82 4.131 6.594h5.059c.551 0 1-.448 1-1zm-19 35c-1.654 0-3-1.346-3-3s1.346-3 3-3 3 1.346 3 3-1.346 3-3 3zm0-2c.551 0 1-.448 1-1s-.449-1-1-1-1 .448-1 1 .449 1 1 1zm8 2c-1.654 0-3-1.346-3-3s1.346-3 3-3 3 1.346 3 3-1.346 3-3 3zm0-2c.551 0 1-.448 1-1s-.449-1-1-1-1 .448-1 1 .449 1 1 1zm8 2c-1.654 0-3-1.346-3-3s1.346-3 3-3 3 1.346 3 3-1.346 3-3 3zm0-2c.551 0 1-.448 1-1s-.449-1-1-1-1 .448-1 1 .449 1 1 1zm-34-21c-1.654 0-3-1.346-3-3s1.346-3 3-3 3 1.346 3 3-1.346 3-3 3zm0-2c.551 0 1-.448 1-1s-.449-1-1-1-1 .448-1 1 .449 1 1 1z" fill="url(#SVGID_1_)"></path></svg>