<!-- icon666.com - MILLIONS vector ICONS FREE --><svg viewBox="0 0 300 300" xmlns="http://www.w3.org/2000/svg" xmlns:xlink="http://www.w3.org/1999/xlink"><linearGradient id="linear-gradient" gradientUnits="userSpaceOnUse" x1="94.521" x2="205.479" y1="63.968" y2="174.926"><stop offset="0" stop-color="#ffc4b8"></stop><stop offset="1" stop-color="#f47979"></stop></linearGradient><linearGradient id="linear-gradient-2" gradientUnits="userSpaceOnUse" x1="150" x2="150" y1="99.178" y2="161.126"><stop offset="0" stop-color="#ffc4b8" stop-opacity="0"></stop><stop offset="1" stop-color="#e65c5c"></stop></linearGradient><linearGradient id="linear-gradient-3" gradientUnits="userSpaceOnUse" x1="81.135" x2="218.865" y1="136.94" y2="274.67"><stop offset="0" stop-color="#e8ebf7"></stop><stop offset="1" stop-color="#bec4d6"></stop></linearGradient><linearGradient id="linear-gradient-4" gradientUnits="userSpaceOnUse" x1="150" x2="150" y1="157.743" y2="97.207"><stop offset="0" stop-color="#e8ebf7" stop-opacity="0"></stop><stop offset="1" stop-color="#919cba"></stop></linearGradient><linearGradient id="linear-gradient-5" gradientUnits="userSpaceOnUse" x1="47.501" x2="252.499" y1="64.724" y2="64.724"><stop offset="0" stop-color="#fb6e5d"></stop><stop offset="1" stop-color="#d62e3e"></stop></linearGradient><linearGradient id="linear-gradient-6" x1="150.545" x2="150.169" xlink:href="#linear-gradient-4" y1="205.032" y2="263.597"></linearGradient><linearGradient id="linear-gradient-7" gradientUnits="userSpaceOnUse" x1="73.665" x2="226.335" y1="198.665" y2="351.335"><stop offset="0" stop-color="#35a17d"></stop><stop offset="1" stop-color="#18664d"></stop></linearGradient><linearGradient id="linear-gradient-8" gradientUnits="userSpaceOnUse" x1="150" x2="150" y1="256.664" y2="306.81"><stop offset="0" stop-color="#35a17d" stop-opacity="0"></stop><stop offset="1" stop-color="#0c4a36"></stop></linearGradient><linearGradient id="linear-gradient-9" gradientUnits="userSpaceOnUse" x1="159.308" x2="92.246" y1="125.991" y2="43.713"><stop offset=".276" stop-color="#fb6e5d" stop-opacity="0"></stop><stop offset="1" stop-color="#b8222f"></stop></linearGradient><linearGradient id="linear-gradient-10" gradientUnits="userSpaceOnUse" x1="255.473" x2="231.071" y1="131.869" y2="90.573"><stop offset="0" stop-color="#fb6e5d" stop-opacity="0"></stop><stop offset=".754" stop-color="#b8222f"></stop></linearGradient><linearGradient id="linear-gradient-11" x1="79.635" x2="106.941" xlink:href="#linear-gradient-3" y1="35.488" y2="62.794"></linearGradient><linearGradient id="linear-gradient-12" gradientUnits="userSpaceOnUse" x1="172.553" x2="144.679" y1="121.791" y2="102.081"><stop offset="0" stop-color="#fb6e5d" stop-opacity="0"></stop><stop offset=".523" stop-color="#b8222f"></stop></linearGradient><linearGradient id="linear-gradient-13" x1="191.181" x2="248.912" xlink:href="#linear-gradient-3" y1="40.358" y2="98.089"></linearGradient><linearGradient id="linear-gradient-14" x1="113.077" x2="151.416" xlink:href="#linear-gradient-3" y1="75.208" y2="113.546"></linearGradient><g id="priview"><path d="m150 76.672c-57.226 0-102.053 18.789-102.053 42.775s44.827 42.777 102.053 42.777 102.053-18.79 102.053-42.777-44.827-42.775-102.053-42.775z" fill="url(#linear-gradient)"></path><path d="m150 76.672c-57.226 0-102.053 18.789-102.053 42.775s44.827 42.777 102.053 42.777 102.053-18.79 102.053-42.777-44.827-42.775-102.053-42.775z" fill="url(#linear-gradient-2)"></path><path d="m202.454 289.525-14.885-77.033c-7.621-39.434-4.206-63.581-5.069-110.882a2.5 2.5 0 0 0 -2.233-2.485 282.9 282.9 0 0 0 -60.534 0 2.5 2.5 0 0 0 -2.233 2.485c-.845 51.314 2.383 72.328-4.529 108.086l-15.425 79.829a2.5 2.5 0 0 0 2.454 2.975h100a2.5 2.5 0 0 0 2.454-2.975z" fill="url(#linear-gradient-3)"></path><path d="m182.5 101.61a2.5 2.5 0 0 0 -2.233-2.485 282.838 282.838 0 0 0 -60.534 0 2.5 2.5 0 0 0 -2.233 2.485c-.265 16.1-.129 29.215-.031 40.741h65.038c.093-11.976.279-25.087-.007-40.741z" fill="url(#linear-gradient-4)"></path><g fill="#858fab"><path d="m165.108 167.375a2.5 2.5 0 0 1 -2.5-2.5v-64.414a2.5 2.5 0 0 1 5 0v64.414a2.5 2.5 0 0 1 -2.5 2.5z"></path><path d="m150.141 127.394a2.5 2.5 0 0 1 -2.5-2.5v-24.894a2.5 2.5 0 0 1 5 0v24.891a2.5 2.5 0 0 1 -2.5 2.503z"></path><path d="m135.5 150.294a2.5 2.5 0 0 1 -2.5-2.5v-46.574a2.5 2.5 0 0 1 5 0v46.574a2.5 2.5 0 0 1 -2.5 2.5z"></path></g><path d="m150 7.5a102.6 102.6 0 0 0 -102.042 112.18 2.5 2.5 0 0 0 3.493 2.056c28.693-12.584 62.771-19.236 98.549-19.236s69.856 6.652 98.549 19.236a2.5 2.5 0 0 0 3.493-2.056c5.678-60.746-42.277-112.18-102.042-112.18z" fill="url(#linear-gradient-5)"></path><path d="m112.971 209.7-15.425 79.825a2.5 2.5 0 0 0 2.454 2.975h100a2.5 2.5 0 0 0 2.454-2.975l-14.885-77.033c-.391-2.023-.746-4-1.081-5.946h-72.928q-.282 1.554-.589 3.154z" fill="url(#linear-gradient-6)"></path><rect fill="url(#linear-gradient-7)" height="35" rx="12.5" width="285" x="7.5" y="257.5"></rect><rect fill="url(#linear-gradient-8)" height="35" rx="12.5" width="285" x="7.5" y="257.5"></rect><path d="m164.575 102.883a41.181 41.181 0 0 0 1.716-37.189 2.479 2.479 0 0 0 -.795-1c-.074-.1-49.273-49.329-49.5-49.5a2.487 2.487 0 0 0 -2.653-.916 103.077 103.077 0 0 0 -56.56 53.112 2.49 2.49 0 0 0 .881 2.779c.114.151 23.155 23.191 37.757 37.78a273.756 273.756 0 0 1 69.154-5.066z" fill="url(#linear-gradient-9)"></path><path d="m208.213 25.682a2.5 2.5 0 0 0 -2.733.432c-19.571 18.014-16.818 46.245-.587 62.051.081.081 14.334 14.335 27.205 27.205q8.476 2.876 16.451 6.366a2.5 2.5 0 0 0 3.493-2.056 102.363 102.363 0 0 0 -43.829-93.998z" fill="url(#linear-gradient-10)"></path><path d="m116.291 15.694a2.5 2.5 0 0 0 -3.2-1.341 103.494 103.494 0 0 0 -56.211 52.768 2.5 2.5 0 0 0 1.138 3.279c34.964 17.771 74.108-17.968 58.273-54.706z" fill="url(#linear-gradient-11)"></path><path d="m182.038 104.332-26.8-26.793a30.735 30.735 0 0 0 -52.529 26.509 2.48 2.48 0 0 0 .969 1.566c.015.02.247.256.634.647a279.6 279.6 0 0 1 77.726-1.929z" fill="url(#linear-gradient-12)"></path><path d="m251.3 94.258a102.938 102.938 0 0 0 -42.7-68.358 2.5 2.5 0 0 0 -3.124.21c-28.393 26.134-9.8 73.777 28.77 73.777a42.312 42.312 0 0 0 15.488-2.924 2.5 2.5 0 0 0 1.566-2.705z" fill="url(#linear-gradient-13)"></path><path d="m133 68a30.772 30.772 0 0 0 -30.286 36.048 2.5 2.5 0 0 0 2.46 2.071 2.592 2.592 0 0 0 .409-.033 274.491 274.491 0 0 1 55.53-3.349 2.545 2.545 0 0 0 2.595-2.369 30.781 30.781 0 0 0 -30.708-32.368z" fill="url(#linear-gradient-14)"></path></g></svg>