<!-- icon666.com - MILLIONS vector ICONS FREE --><svg viewBox="0 0 300 300" xmlns="http://www.w3.org/2000/svg" xmlns:xlink="http://www.w3.org/1999/xlink"><linearGradient id="linear-gradient" gradientUnits="userSpaceOnUse" x1="94.521" x2="205.479" y1="63.968" y2="174.926"><stop offset="0" stop-color="#ffc4b8"></stop><stop offset="1" stop-color="#f47979"></stop></linearGradient><linearGradient id="linear-gradient-2" gradientUnits="userSpaceOnUse" x1="150" x2="150" y1="99.178" y2="161.126"><stop offset="0" stop-color="#ffc4b8" stop-opacity="0"></stop><stop offset="1" stop-color="#e65c5c"></stop></linearGradient><linearGradient id="linear-gradient-3" gradientUnits="userSpaceOnUse" x1="81.135" x2="218.865" y1="136.94" y2="274.67"><stop offset="0" stop-color="#e8ebf7"></stop><stop offset="1" stop-color="#bec4d6"></stop></linearGradient><linearGradient id="linear-gradient-4" gradientUnits="userSpaceOnUse" x1="150" x2="150" y1="157.743" y2="97.207"><stop offset="0" stop-color="#e8ebf7" stop-opacity="0"></stop><stop offset="1" stop-color="#919cba"></stop></linearGradient><linearGradient id="linear-gradient-5" gradientUnits="userSpaceOnUse" x1="47.501" x2="252.499" y1="64.724" y2="64.724"><stop offset="0" stop-color="#fb6e5d"></stop><stop offset="1" stop-color="#d62e3e"></stop></linearGradient><linearGradient id="linear-gradient-6" x1="150.545" x2="150.169" xlink:href="#linear-gradient-4" y1="205.032" y2="263.597"></linearGradient><linearGradient id="linear-gradient-7" gradientUnits="userSpaceOnUse" x1="73.665" x2="226.335" y1="198.665" y2="351.335"><stop offset="0" stop-color="#35a17d"></stop><stop offset="1" stop-color="#18664d"></stop></linearGradient><linearGradient id="linear-gradient-8" gradientUnits="userSpaceOnUse" x1="150" x2="150" y1="256.664" y2="306.81"><stop offset="0" stop-color="#35a17d" stop-opacity="0"></stop><stop offset="1" stop-color="#0c4a36"></stop></linearGradient><linearGradient id="linear-gradient-9" gradientUnits="userSpaceOnUse" x1="159.308" x2="92.246" y1="125.991" y2="43.713"><stop offset=".276" stop-color="#fb6e5d" stop-opacity="0"></stop><stop offset="1" stop-color="#b8222f"></stop></linearGradient><linearGradient id="linear-gradient-10" gradientUnits="userSpaceOnUse" x1="255.473" x2="231.071" y1="131.869" y2="90.573"><stop offset="0" stop-color="#fb6e5d" stop-opacity="0"></stop><stop offset=".754" stop-color="#b8222f"></stop></linearGradient><linearGradient id="linear-gradient-11" x1="79.635" x2="106.941" xlink:href="#linear-gradient-3" y1="35.488" y2="62.794"></linearGradient><linearGradient id="linear-gradient-12" gradientUnits="userSpaceOnUse" x1="172.553" x2="144.679" y1="121.791" y2="102.081"><stop offset="0" stop-color="#fb6e5d" stop-opacity="0"></stop><stop offset=".523" stop-color="#b8222f"></stop></linearGradient><linearGradient id="linear-gradient-13" x1="191.181" x2="248.912" xlink:href="#linear-gradient-3" y1="40.358" y2="98.089"></linearGradient><linearGradient id="linear-gradient-14" x1="113.077" x2="151.416" xlink:href="#linear-gradient-3" y1="75.208" y2="113.546"></linearGradient><g id="priview"><path d="m150 76.672c-57.226 0-102.053 18.789-102.053 42.775s44.827 42.777 102.053 42.777 102.053-18.79 102.053-42.777-44.827-42.775-102.053-42.775z" fill="url(#linear-gradient)"></path><path d="m150 76.672c-57.226 0-102.053 18.789-102.053 42.775s44.827 42.777 102.053 42.777 102.053-18.79 102.053-42.777-44.827-42.775-102.053-42.775z" fill="url(#linear-gradient-2)"></path><path d="m202.454 289.525-14.885-77.033c-7.621-39.434-4.206-63.581-5.069-110.882a2.5 2.5 0 0 0 -2.233-2.485 282.9 282.9 0 0 0 -60.534 0 2.5 2.5 0 0 0 -2.233 2.485c-.845 51.314 2.383 72.328-4.529 108.086l-15.425 79.829a2.5 2.5 0 0 0 2.454 2.975h100a2.5 2.5 0 0 0 2.454-2.975z" fill="url(#linear-gradient-3)"></path><path d="m182.5 101.61a2.5 2.5 0 0 0 -2.233-2.485 282.838 282.838 0 0 0 -60.534 0 2.5 2.5 0 0 0 -2.233 2.485c-.265 16.1-.129 29.215-.031 40.741h65.038c.093-11.976.279-25.087-.007-40.741z" fill="url(#linear-gradient-4)"></path><g fill="#858fab"><path d="m165.108 167.375a2.5 2.5 0 0 1 -2.5-2.5v-64.414a2.5 2.5 0 0 1 5 0v64.414a2.5 2.5 0 0 1 -2.5 2.5z"></path><path d="m150.141 127.394a2.5 2.5 0 0 1 -2.5-2.5v-24.894a2.5 2.5 0 0 1 5 0v24.891a2.5 2.5 0 0 1 -2.5 2.503z"></path><path d="m135.5 150.294a2.5 2.5 0 0 1 -2.5-2.5v-46.574a2.5 2.5 0 0 1 5 0v46.574a2.5 2.5 0 0 1 -2.5 2.5z"></path></g><path d="m150 7.5a102.6 102.6 0 0 0 -102.042 112.18 2.5 2.5 0 0 0 3.493 2.056c28.693-12.584 62.771-19.236 98.549-19.236s69.856 6.652 98.549 19.236a2.5 2.5 0 0 0 3.493-2.056c5.678-60.746-42.277-112.18-102.042-112.18z" fill="url(#linear-gradient-5)"></path><path d="m112.971 209.7-15.425 79.825a2.5 2.5 0 0 0 2.454 2.975h100a2.5 2.5 0 0 0 2.454-2.975l-14.885-77.033c-.391-2.023-.746-4-1.081-5.946h-72.928q-.282 1.554-.589 3.154z" fill="url(#linear-gradient-6)"></path><rect fill="url(#linear-gradient-7)" height="35" rx="12.5" width="285" x="7.5" y="257.5"></rect><rect fill="url(#linear-gradient-8)" height="35" rx="12.5" width="285" x="7.5" y="257.5"></rect><path d="m164.575 102.883a41.181 41.181 0 0 0 1.716-37.189 2.479 2.479 0 0 0 -.795-1c-.074-.1-49.273-49.329-49.5-49.5a2.487 2.487 0 0 0 -2.653-.916 103.077 103.077 0 0 0 -56.56 53.112 2.49 2.49 0 0 0 .881 2.779c.114.151 23.155 23.191 37.757 37.78a273.756 273.756 0 0 1 69.154-5.066z" fill="url(#linear-gradient-9)"></path><path d="m208.213 25.682a2.5 2.5 0 0 0 -2.733.432c-19.571 18.014-16.818 46.245-.587 62.051.081.081 14.334 14.335 27.205 27.205q8.476 2.876 16.451 6.366a2.5 2.5 0 0 0 3.493-2.056 102.363 102.363 0 0 0 -43.829-93.998z" fill="url(#linear-gradient-10)"></path><path d="m116.291 15.694a2.5 2.5 0 0 0 -3.2-1.341 103.494 103.494 0 0 0 -56.211 52.768 2.5 2.5 0 0 0 1.138 3.279c34.964 17.771 74.108-17.968 58.273-54.706z" fill="url(#linear-gradient-11)"></path><path d="m182.038 104.332-26.8-26.793a30.735 30.735 0 0 0 -52.529 26.509 2.48 2.48 0 0 0 .969 1.566c.015.02.247.256.634.647a279.6 279.6 0 0 1 77.726-1.929z" fill="url(#linear-gradient-12)"></path><path d="m251.3 94.258a102.938 102.938 0 0 0 -42.7-68.358 2.5 2.5 0 0 0 -3.124.21c-28.393 26.134-9.8 73.777 28.77 73.777a42.312 42.312 0 0 0 15.488-2.924 2.5 2.5 0 0 0 1.566-2.705z" fill="url(#linear-gradient-13)"></path><path d="m133 68a30.772 30.772 0 0 0 -30.286 36.048 2.5 2.5 0 0 0 2.46 2.071 2.592 2.592 0 0 0 .409-.033 274.491 274.491 0 0 1 55.53-3.349 2.545 2.545 0 0 0 2.595-2.369 30.781 30.781 0 0 0 -30.708-32.368z" fill="url(#linear-gradient-14)"></path><path d="m280 257.5h-83.734l-8.7-45.008a279.8 279.8 0 0 1 -5.063-52.449c41.494-5.728 69.3-21.83 69.536-40.362.006-.474.458-4.133.458-9.681a102.5 102.5 0 0 0 -205 0c0 3.174.154 6.431.458 9.68.233 18.544 28.034 34.634 69.542 40.363a234.116 234.116 0 0 1 -4.529 49.652l-9.237 47.8h-83.731a12.514 12.514 0 0 0 -12.5 12.505v10a12.514 12.514 0 0 0 12.5 12.5h260a12.514 12.514 0 0 0 12.5-12.5v-10a12.514 12.514 0 0 0 -12.5-12.5zm-97.5-102.5v-50.619a233.426 233.426 0 0 1 64.453 16.684c-1.742 15.053-27.641 28.725-64.453 33.935zm63.512-62.005a37.49 37.49 0 0 1 -38.621-61.759 97.634 97.634 0 0 1 38.621 61.756zm-133.422-73.028a37.491 37.491 0 0 1 -35.34 50.033 37.057 37.057 0 0 1 -14.729-3.02 98.1 98.1 0 0 1 50.069-47.013zm-60.09 90.033a96.958 96.958 0 0 1 7.92-38.477 42.018 42.018 0 0 0 16.83 3.477 42.491 42.491 0 0 0 40-56.837 97.367 97.367 0 0 1 85.983 10.2 42.475 42.475 0 0 0 43.528 69.637 98.054 98.054 0 0 1 .739 12c0 1.9-.059 3.832-.174 5.774-24.876-10.394-53.479-16.516-83.6-17.944a30.743 30.743 0 1 0 -61.344 3.71 232.333 232.333 0 0 0 -49.709 14.234c-.114-1.942-.173-3.874-.173-5.774zm106.222-12.353a280.391 280.391 0 0 0 -51.385 3.08 25.742 25.742 0 1 1 51.385-3.08zm-105.675 23.418a227.164 227.164 0 0 1 52.236-14.955 2.515 2.515 0 0 0 .322-.028c.065-.011.123-.036.185-.051q5.8-.947 11.71-1.65v50.619c-36.824-5.209-62.713-18.872-64.453-33.935zm64.833 89.581c7.01-36.275 3.783-57.852 4.62-106.8q5.209-.513 10.5-.821v44.768a2.5 2.5 0 0 0 5 0v-45.03q4.8-.2 9.642-.237v22.367a2.5 2.5 0 0 0 5 0v-22.362c4.345.04 9.7.242 9.967.254v62.09a2.5 2.5 0 0 0 5 0v-61.814q4.978.31 9.892.786v55.7a284.772 284.772 0 0 0 5.16 53.9l8.513 44.059h-82.347zm169.62 69.354a7.508 7.508 0 0 1 -7.5 7.5h-260a7.508 7.508 0 0 1 -7.5-7.5v-10a7.508 7.508 0 0 1 7.5-7.5h260a7.508 7.508 0 0 1 7.5 7.5z"></path></g></svg>