<svg viewBox="0 0 48 48" xmlns="http://www.w3.org/2000/svg"><g id="_07-avatar_man" data-name="07-avatar man"><path d="m38 48h-28a1 1 0 0 1 -1-1v-11.983a5.023 5.023 0 0 1 3.626-4.808l6.186-1.191a.99.99 0 0 1 .188-.018 1 1 0 0 0 1-1v-3h2v3a3 3 0 0 1 -2.9 3l-6.015 1.155a3 3 0 0 0 -2.085 2.862v10.983h26v-10.983a3.015 3.015 0 0 0 -2.176-2.885l-5.924-1.132a3 3 0 0 1 -2.9-3v-3h2v3a1 1 0 0 0 1 1 .99.99 0 0 1 .188.018l6.1 1.171a5.041 5.041 0 0 1 3.712 4.828v11.983a1 1 0 0 1 -1 1z"></path><path d="m34 13h-2v-3a8 8 0 0 0 -16 0v3h-2v-3a10 10 0 0 1 20 0z"></path><path d="m24 27a8.009 8.009 0 0 1 -8-8v-.126a4 4 0 0 1 1-7.874 1 1 0 0 1 1 1v7a6 6 0 0 0 12 0v-7a1 1 0 0 1 1-1 4 4 0 0 1 1 7.874v.126a8.009 8.009 0 0 1 -8 8zm8-13.731v3.462a2 2 0 0 0 0-3.462zm-16 0a2 2 0 0 0 0 3.462z"></path><path d="m14 40h2v7h-2z"></path><path d="m32 40h2v7h-2z"></path><path d="m30.293 12.707-1.707-1.707h-9.172l-1.707 1.707-1.414-1.414 2-2a1 1 0 0 1 .707-.293h10a1 1 0 0 1 .707.293l2 2z"></path><path d="m19.5 6.919h2v3.162h-2z" transform="matrix(.949 -.316 .316 .949 -1.636 6.919)"></path><path d="m23.5 6.919h2v3.162h-2z" transform="matrix(.949 -.316 .316 .949 -1.431 8.184)"></path><path d="m27.5 6.919h2v3.162h-2z" transform="matrix(.949 -.316 .316 .949 -1.225 9.449)"></path><path d="m24 34a4.821 4.821 0 0 1 -5-5h1 1a2.853 2.853 0 0 0 3 3 2.853 2.853 0 0 0 3-3h2a4.821 4.821 0 0 1 -5 5z"></path></g></svg>