<!-- icon666.com - MILLIONS vector ICONS FREE --><svg viewBox="0 0 512 512" xmlns="http://www.w3.org/2000/svg"><g id="Layer_16" data-name="Layer 16"><path d="m90.766 247.723-8.428 77.111 11.389-11.46 8.351 44.439 30.877-33.777-20.651-76.313z" fill="#16a085"></path><path d="m420.475 247.723 8.429 77.111-11.389-11.46-8.352 44.439-30.877-33.777 20.652-76.313z" fill="#16a085"></path><path d="m194.963 156.646h122.069a80.669 80.669 0 0 1 80.668 80.669v61.035a141.7 141.7 0 0 1 -141.7 141.703 141.7 141.7 0 0 1 -141.7-141.7v-61.038a80.669 80.669 0 0 1 80.669-80.669z" fill="#f4dcc6"></path><path d="m256 429.744a141.7 141.7 0 0 1 -141.7-141.7v10.306a141.7 141.7 0 0 0 141.7 141.703 141.7 141.7 0 0 0 141.7-141.7v-10.312a141.7 141.7 0 0 1 -141.7 141.703z" fill="#c99673"></path><path d="m397.7 237.314a80.668 80.668 0 0 0 -80.668-80.668h-122.068a80.67 80.67 0 0 0 -80.67 80.67v2.091h141.967l17.5 58.942v-49.431a9.511 9.511 0 0 1 9.51-9.511h114.429z" fill="#c99673"></path><circle cx="180.912" cy="274.712" fill="#ecf0f1" r="45.967"></circle><path d="m180.912 228.745a45.967 45.967 0 0 0 -45.967 45.967h91.934a45.967 45.967 0 0 0 -45.967-45.967z" fill="#bdc3c7"></path><ellipse cx="180.912" cy="274.712" fill="#414141" rx="31.319" ry="35.305"></ellipse><ellipse cx="180.912" cy="274.712" fill="#ecf0f1" rx="15.785" ry="17.794"></ellipse><circle cx="331.083" cy="274.712" fill="#ecf0f1" r="45.967"></circle><path d="m331.083 228.745a45.967 45.967 0 0 0 -45.967 45.967h91.934a45.967 45.967 0 0 0 -45.967-45.967z" fill="#bdc3c7"></path><ellipse cx="331.083" cy="274.712" fill="#414141" rx="31.319" ry="35.305"></ellipse><g fill="#ecf0f1"><ellipse cx="331.083" cy="274.712" rx="15.785" ry="17.794"></ellipse><circle cx="160.524" cy="274.712" r="10.25"></circle><circle cx="310.694" cy="274.712" r="10.25"></circle></g><path d="m260.9 338.826 15.816-17.974a6.524 6.524 0 0 0 -4.9-10.833h-31.632a6.524 6.524 0 0 0 -4.9 10.833l15.816 17.974a6.524 6.524 0 0 0 9.8 0z" fill="#c99673"></path><ellipse cx="314.758" cy="200.291" fill="#16a085" rx="31.579" ry="10.629" transform="matrix(.981 -.193 .193 .981 -32.69 64.389)"></ellipse><ellipse cx="196.697" cy="200.291" fill="#16a085" rx="10.629" ry="31.579" transform="matrix(.193 -.981 .981 .193 -37.735 354.717)"></ellipse><ellipse cx="256" cy="402.435" fill="#c99673" rx="13.666" ry="9.68"></ellipse><path d="m253.589 36.564c-99.72 1.294-179.05 84.422-179.05 184.151v77.634l21.747-39.937 8.063 39.937 3.859-6.978a74.554 74.554 0 0 0 10.432 13.164c10.981 10.843 24.294 14.468 32.391 15.808a88.216 88.216 0 0 1 -22.213-33.207 98.763 98.763 0 0 1 -5.218-23.6l25.173-45.525 29.508-46.969a281.355 281.355 0 0 0 95.477 127.31s-10.067-54.526-12.906-83.974c-.346-3.594-.635-7.126-.9-10.63a137.17 137.17 0 0 0 50.742 25 245.07 245.07 0 0 1 -19.058-43.9c-1.159-3.6-2.18-7.1-3.121-10.547a323.164 323.164 0 0 1 99.888 89.19 98.682 98.682 0 0 1 -5.222 23.643 88.216 88.216 0 0 1 -22.213 33.207c8.1-1.34 21.41-4.965 32.391-15.808a72.758 72.758 0 0 0 11.915-15.7q2.817 4.705 5.48 9.515 3.06-18.545 6.122-37.09l20.584 37.09v-80.34a181.461 181.461 0 0 0 -183.871-181.444z" fill="#1abc9c"></path><path d="m424.5 150.671a180.986 180.986 0 0 0 -17.824-33.771c-35.489 28.948-89.791 47.474-150.68 47.474-60.523 0-114.531-18.31-150.031-46.959a185.58 185.58 0 0 0 -17.942 33.855c17.31 19.86 42.484 36.351 72.748 47.638l17.51-27.872a283.239 283.239 0 0 0 17.542 38.064 286.288 286.288 0 0 0 60.177 6.317c1.663 0 3.3-.056 4.954-.083-.032-.317-.068-.647-.1-.959-.346-3.594-.635-7.126-.9-10.63a138.247 138.247 0 0 0 16.315 10.974c8.807-.6 17.428-1.618 25.843-2.973a244.325 244.325 0 0 1 -10.474-26.9c-1.159-3.6-2.18-7.1-3.121-10.547a322.866 322.866 0 0 1 44.383 30.638c38.757-11.064 70.914-30.237 91.6-54.266z" fill="#25e5c0"></path><path d="m290.983 361.164-8.838 8.836a9.4 9.4 0 0 1 -13.272 0 18.227 18.227 0 0 0 -25.752 0 9.4 9.4 0 0 1 -13.272 0l-8.837-8.837a4.413 4.413 0 0 0 -6.241 6.24l8.837 8.839a18.234 18.234 0 0 0 25.754 0 9.382 9.382 0 0 1 13.271 0 18.235 18.235 0 0 0 25.753 0l8.838-8.838a4.413 4.413 0 0 0 -6.241-6.24z"></path><path d="m386.845 85.006a185.338 185.338 0 0 0 -133.459-53.738c-49.4.642-95.732 20.774-130.45 56.688a189.632 189.632 0 0 0 -53.536 132.462v77.635a5 5 0 0 0 9.391 2.391l1.266-2.325-2.828 25.881a5 5 0 0 0 8.517 4.067l4.685-4.714 6.595 35.092a5 5 0 0 0 8.6 2.45l12.146-13.286c20.367 56.583 74.573 97.152 138.083 97.152 63.289 0 117.343-40.284 137.873-96.557l11.6 12.691a5 5 0 0 0 8.605-2.45l6.595-35.092 4.685 4.714a5 5 0 0 0 8.522-4.067l-3.008-27.524 2.224 4.007a5 5 0 0 0 9.372-2.426v-80.345a185.133 185.133 0 0 0 -55.478-132.706zm-281.84 261.748-6.5-34.6a5 5 0 0 0 -8.46-2.6l-1.32 1.328 3.921-35.876 1.323-2.429 5.344 26.466a5 5 0 0 0 9.257 1.464c.207.265.42.523.63.785a146.166 146.166 0 0 0 5.1 35.294zm150.854 88c-70.634 0-128.908-53.854-135.965-122.654a66.656 66.656 0 0 0 30.182 12.877 4.935 4.935 0 0 0 .819.067 5 5 0 0 0 3.459-8.608 82.93 82.93 0 0 1 -20.979-31.317 91.2 91.2 0 0 1 -4.768-20.858l24.336-44.011 11.167-17.775c5.7 5.951 17.392 10.488 29.438 12.854l.089.016q3.981 6.918 8.325 13.611a50.349 50.349 0 0 0 -71.43 45.753 4.413 4.413 0 1 0 8.826 0 41.554 41.554 0 0 1 83.108 0 4.413 4.413 0 1 0 8.826 0 50.405 50.405 0 0 0 -.822-9 288.323 288.323 0 0 0 40.156 36.349 5 5 0 0 0 7.91-4.913c-.1-.541-10-54.3-12.818-83.26 3.787 2.523 7.69 4.861 11.676 6.994a142.728 142.728 0 0 0 27.09 11.075 50.382 50.382 0 0 0 -23.784 42.758 4.414 4.414 0 1 0 8.827 0 41.554 41.554 0 0 1 83.107 0 4.4 4.4 0 0 0 8.2 2.237 80.73 80.73 0 0 1 -2.487 8.173 82.938 82.938 0 0 1 -20.979 31.317 5 5 0 0 0 4.278 8.541 66.649 66.649 0 0 0 30.186-12.88c-7.057 68.8-65.332 122.657-135.973 122.657zm-68.694-231.3c-9.731-2.937-15.1-6.672-16.407-8.532 1.411-.906 5.264-1.919 11.249-2q2.469 5.328 5.158 10.539zm-10.976-20.21.922-1.467c.182.439.376.873.56 1.311-.503.05-.992.112-1.482.163zm120.693 1.679c1.307.819 2.587 1.671 3.88 2.507q-1.373.441-2.7.922c-.396-1.135-.8-2.275-1.18-3.422zm14.874 9.912c4 2.83 7.906 5.769 11.757 8.773-2.352.695-4.949 1.343-7.809 1.9a83.375 83.375 0 0 1 -10.3 1.39q-2.022-4.547-3.848-9.171a79.069 79.069 0 0 1 10.2-2.885zm40.611 34.222a50.224 50.224 0 0 0 -37.074-2.183 4.938 4.938 0 0 0 -.366-.86q-2.606-4.689-5-9.5c2.556-.295 5.138-.686 7.7-1.189a91.21 91.21 0 0 0 15.092-4.285q10.2 8.595 19.648 18.024zm26.669 30.218q2.043 2.632 4.041 5.307c-.409 3.408-.954 6.628-1.624 9.71a50.15 50.15 0 0 0 -2.417-15.01zm41.887 50.272a5 5 0 0 0 -8.461 2.6l-6.5 34.6-8.715-9.532a146.173 146.173 0 0 0 5.277-35.914c.807-1.011 1.618-2.067 2.415-3.169q.664 1.175 1.3 2.333a5 5 0 0 0 9.309-1.6l3.236-19.609 3.457 31.623zm11.4-30.813-11.213-20.2a5 5 0 0 0 -9.305 1.612l-3.989 24.168a5 5 0 0 0 -7.068 1.825 67.645 67.645 0 0 1 -11.04 14.539 49.552 49.552 0 0 1 -13.534 9.426 87.947 87.947 0 0 0 11.566-21.55 102.583 102.583 0 0 0 5.5-24.841 4.993 4.993 0 0 0 -.942-3.478 326.152 326.152 0 0 0 -101.434-90.57 5 5 0 0 0 -7.308 5.657c1.061 3.88 2.1 7.4 3.186 10.762a250.557 250.557 0 0 0 13.842 34.116 131.937 131.937 0 0 1 -37.684-20.686 5 5 0 0 0 -8.072 4.311c.309 4.093.6 7.5.909 10.734 1.979 20.529 7.491 53.411 10.655 71.477a276.222 276.222 0 0 1 -83.565-117.036 5 5 0 0 0 -8.918-.912l-29.509 46.964c-.05.079-.1.159-.142.241l-25.173 45.524a5.006 5.006 0 0 0 -.6 2.942 102.61 102.61 0 0 0 5.495 24.8 87.91 87.91 0 0 0 11.565 21.55 49.537 49.537 0 0 1 -13.534-9.426 69.4 69.4 0 0 1 -9.69-12.231 5 5 0 0 0 -4.255-2.375h-.12a4.966 4.966 0 0 0 -1.03.133l-5.872-29.082a5 5 0 0 0 -9.292-1.4l-12.352 22.688v-58c0-97.538 78.107-177.9 174.114-179.15a176.462 176.462 0 0 1 178.809 176.446z"></path><path d="m180.641 234.148c-20.026 0-36.318 18.081-36.318 40.3s16.292 40.3 36.318 40.3 36.319-18.081 36.319-40.3-16.293-40.3-36.319-40.3zm0 70.609c-14.512 0-26.318-13.594-26.318-30.3s11.806-30.3 26.318-30.3 26.319 13.6 26.319 30.3-11.806 30.3-26.319 30.3z"></path><path d="m330.812 234.148c-20.027 0-36.319 18.081-36.319 40.3s16.292 40.3 36.319 40.3 36.319-18.081 36.319-40.3-16.293-40.3-36.319-40.3zm0 70.609c-14.512 0-26.319-13.594-26.319-30.3s11.807-30.3 26.319-30.3 26.319 13.6 26.319 30.3-11.806 30.3-26.319 30.3z"></path></g></svg>