<!-- icon666.com - MILLIONS vector ICONS FREE --><svg viewBox="0 0 512 512" xmlns="http://www.w3.org/2000/svg"><g id="Layer_16" data-name="Layer 16"><path d="m256.364 301.632h-158.21v60.038l40.43 45.876 6.833-17.652 20.077 17.652h90.87 90.869l20.076-17.652 6.834 17.652 40.429-45.876v-60.038z" fill="#27ae60"></path><path d="m194.966 156.645h122.069a80.669 80.669 0 0 1 80.665 80.67v61.035a141.7 141.7 0 0 1 -141.7 141.703 141.7 141.7 0 0 1 -141.7-141.7v-61.038a80.669 80.669 0 0 1 80.669-80.669z" fill="#f4dcc6"></path><path d="m256 429.744a141.7 141.7 0 0 1 -141.7-141.7v10.309a141.7 141.7 0 0 0 141.7 141.7 141.7 141.7 0 0 0 141.7-141.7v-10.313a141.7 141.7 0 0 1 -141.7 141.704z" fill="#c99673"></path><path d="m317.035 156.646h-122.069a80.669 80.669 0 0 0 -80.67 80.668v2.093h81.384c.565-.38 8.2-4.569 17.746-9.487 14.02-7.22 29.226-13.85 29.226-13.85 2.562-.389 5.2-.712 7.892-.991l-17.8 42.1 38.773-42.906c.368.009.72 0 1.088.009 57.685 1.877 99.952 34.124 119.323 51.431l5.774-26.3v-2.093a80.668 80.668 0 0 0 -80.667-80.674z" fill="#c99673"></path><circle cx="180.915" cy="274.711" fill="#ecf0f1" r="45.967"></circle><path d="m180.915 228.745a45.967 45.967 0 0 0 -45.967 45.967h91.933a45.966 45.966 0 0 0 -45.966-45.967z" fill="#bdc3c7"></path><ellipse cx="180.915" cy="274.712" fill="#414141" rx="31.319" ry="35.305"></ellipse><ellipse cx="180.915" cy="274.712" fill="#ecf0f1" rx="15.785" ry="17.794"></ellipse><circle cx="331.086" cy="274.711" fill="#ecf0f1" r="45.967"></circle><path d="m331.085 228.745a45.966 45.966 0 0 0 -45.966 45.967h91.933a45.966 45.966 0 0 0 -45.967-45.967z" fill="#bdc3c7"></path><ellipse cx="331.085" cy="274.712" fill="#414141" rx="31.319" ry="35.305"></ellipse><g fill="#ecf0f1"><ellipse cx="331.086" cy="274.712" rx="15.785" ry="17.794"></ellipse><circle cx="160.526" cy="274.711" r="10.25"></circle><circle cx="310.697" cy="274.711" r="10.25"></circle></g><path d="m260.9 338.825 15.816-17.973a6.523 6.523 0 0 0 -4.9-10.833h-31.629a6.524 6.524 0 0 0 -4.9 10.833l15.817 17.973a6.523 6.523 0 0 0 9.796 0z" fill="#c99673"></path><ellipse cx="314.76" cy="200.29" fill="#27ae60" rx="31.579" ry="10.629" transform="matrix(.981 -.193 .193 .981 -32.689 64.39)"></ellipse><ellipse cx="196.699" cy="200.29" fill="#27ae60" rx="10.629" ry="31.579" transform="matrix(.193 -.981 .981 .193 -37.733 354.719)"></ellipse><ellipse cx="256.003" cy="402.434" fill="#c99673" rx="13.666" ry="9.68"></ellipse><path d="m440.632 426.222a32.472 32.472 0 0 0 -3.173-2.75v-125.128h.006v-80.336a181.463 181.463 0 0 0 -183.874-181.444c-99.719 1.294-179.048 84.424-179.048 184.151v202.756a32.389 32.389 0 0 0 -3.175 48.854l23.051 23.053 23.052-23.053a32.389 32.389 0 0 0 -3.175-48.854v-100.271a50.4 50.4 0 0 0 6.242 4.121 52.175 52.175 0 0 0 33.95 5.674 91.8 91.8 0 0 1 -33.578-52.179 82.333 82.333 0 0 1 10.25-17.616l.171-.224a272.1 272.1 0 0 1 67.735-62.927 349.464 349.464 0 0 1 39.334-19.316 154.99 154.99 0 0 0 -5.655 76.445 200.234 200.234 0 0 1 38.721-58.842 196.312 196.312 0 0 1 22.085-19.921l34.5 18.769a149.45 149.45 0 0 1 59.37 58.961 82.516 82.516 0 0 1 4.508 9.567 92.208 92.208 0 0 1 -35.836 67.28 52.175 52.175 0 0 0 33.95-5.674 50.691 50.691 0 0 0 7.66-5.244v101.4a32.389 32.389 0 0 0 -3.175 48.854l23.051 23.053 23.052-23.053a32.6 32.6 0 0 0 .001-46.106z" fill="#2ecc71"></path><path d="m382.861 88.287a34.9 34.9 0 0 0 -32.318 34.792c0 .145.02.286.023.43a34.888 34.888 0 0 0 -49.35 17.75 34.836 34.836 0 0 0 -45.216 5.706 34.836 34.836 0 0 0 -45.216-5.706 34.886 34.886 0 0 0 -49.348-17.75c0-.144.021-.285.021-.43a34.927 34.927 0 0 0 -31.348-34.743 185.642 185.642 0 0 0 -35.59 48.681 34.9 34.9 0 0 0 48.9 16.626c0 .145-.021.285-.021.43a34.915 34.915 0 0 0 54.246 29.084 35.066 35.066 0 0 0 8.786 12.822 348.773 348.773 0 0 1 31.97-15.246 154.727 154.727 0 0 0 -5.655 22.158c-.135.766-.212 1.493-.336 2.25a34.8 34.8 0 0 0 23.591-11.423 35.187 35.187 0 0 0 11.819 8.559q1.779-1.974 3.648-3.941a196.312 196.312 0 0 1 22.085-19.921l18.228 9.917a34.914 34.914 0 0 0 2.579-5.175 34.915 34.915 0 0 0 54.246-29.084c0-.145-.02-.285-.022-.43a34.89 34.89 0 0 0 49.3-17.61 181.953 181.953 0 0 0 -35.022-47.746z" fill="#38e87f"></path><rect fill="#34495e" height="18.525" rx="9.263" width="55.237" x="66.901" y="404.623"></rect><rect fill="#34495e" height="18.525" rx="9.263" width="55.237" x="390.056" y="404.623"></rect><path d="m285.119 279.124a4.413 4.413 0 0 0 4.413-4.413 41.554 41.554 0 0 1 83.107 0 4.414 4.414 0 0 0 8.827 0 50.38 50.38 0 0 0 -100.76 0 4.413 4.413 0 0 0 4.413 4.413z"></path><path d="m332.006 351.136a4.415 4.415 0 0 0 -6.2.7c-4.228 5.311-11.491 8.945-20.454 10.233-6.513.936-13.113.689-20.1.429-1.964-.073-3.928-.146-5.89-.192-12.912-.3-25.92.592-38.5 1.454-8.544.586-17.377 1.192-26.03 1.408-5.446.136-11.2.14-16.41-1.435-5.171-1.564-9.167-4.646-10.962-8.457a4.413 4.413 0 1 0 -7.985 3.761c2.858 6.068 8.834 10.859 16.393 13.144a52.827 52.827 0 0 0 15.28 1.868c1.336 0 2.643-.025 3.906-.056 8.843-.222 17.775-.835 26.412-1.427 12.379-.851 25.182-1.733 37.688-1.436 1.92.044 3.843.117 5.767.189 7.072.263 14.384.535 21.686-.513 11.2-1.609 20.469-6.393 26.1-13.474a4.413 4.413 0 0 0 -.701-6.196z"></path><path d="m217.4 274.92c0-22.224-16.292-40.305-36.318-40.305s-36.323 18.085-36.323 40.305 16.292 40.305 36.319 40.305 36.322-18.081 36.322-40.305zm-62.637 0c0-16.71 11.807-30.305 26.319-30.305s26.318 13.595 26.318 30.305-11.807 30.305-26.318 30.305-26.323-13.595-26.323-30.305z"></path><path d="m331.249 234.615c-20.027 0-36.319 18.081-36.319 40.305s16.292 40.305 36.319 40.305 36.318-18.081 36.318-40.305-16.292-40.305-36.318-40.305zm0 70.61c-14.512 0-26.319-13.6-26.319-30.305s11.807-30.305 26.319-30.305 26.318 13.595 26.318 30.305-11.807 30.305-26.318 30.305z"></path><path d="m445.872 424.539a14.217 14.217 0 0 0 -3.25-23.16v-102.579c0-.08.006-.161.006-.242v-80.341a186.465 186.465 0 0 0 -188.939-186.445c-49.4.642-95.73 20.774-130.449 56.688a189.639 189.639 0 0 0 -53.534 132.463v180.549a14.225 14.225 0 0 0 -3.167 22.968 37.592 37.592 0 0 0 1.461 51.628l23.051 23.053a5 5 0 0 0 7.071 0l23.053-23.053a37.585 37.585 0 0 0 1.543-51.525 14.217 14.217 0 0 0 -3.253-23.167v-7.945l15.535 17.63a5 5 0 0 0 3.75 1.694 4.935 4.935 0 0 0 .879-.078 5 5 0 0 0 3.785-3.117l4.246-10.973 14.7 12.923a4.989 4.989 0 0 0 1.284.8 146.373 146.373 0 0 0 184.593.368 5 5 0 0 0 2.465-1.169l14.7-12.923 4.247 10.973a5 5 0 0 0 8.414 1.5l14.811-16.806v7.214a14.224 14.224 0 0 0 -3.169 22.974 37.646 37.646 0 0 0 1.458 51.625l23.051 23.053a5 5 0 0 0 7.071 0l23.053-23.053a37.644 37.644 0 0 0 1.534-51.527zm-5.416-10.445a4.267 4.267 0 0 1 -4.263 4.262h-36.711a4.263 4.263 0 1 1 0-8.525h36.711a4.267 4.267 0 0 1 4.263 4.263zm-364.129-4.263h36.711a4.263 4.263 0 1 1 0 8.525h-36.711a4.263 4.263 0 1 1 0-8.525zm45.856 39.65a27.418 27.418 0 0 1 -8.083 19.519l-19.518 19.515-19.516-19.515a27.6 27.6 0 0 1 0-39.029c.532-.531 1.119-1.057 1.8-1.613h35.448c.679.558 1.265 1.083 1.793 1.609a27.421 27.421 0 0 1 8.076 19.514zm-4.678-130.041a5 5 0 0 0 -8.045 3.966v76.425h-29.754v-178.908c0-97.538 78.106-177.9 174.113-179.151.79-.01 1.576-.015 2.364-.015a176.463 176.463 0 0 1 176.445 176.46v80.093c0 .08-.006.161-.006.242v101.279h-29.755v-77.549a5 5 0 0 0 -8.184-3.855 45.307 45.307 0 0 1 -6.9 4.729 46 46 0 0 1 -19 5.677 97.847 97.847 0 0 0 18.245-25.284 96.812 96.812 0 0 0 10.063-37.309 5.023 5.023 0 0 0 -.341-2.159 88.083 88.083 0 0 0 -4.782-10.147 154.189 154.189 0 0 0 -61.363-60.934l-34.5-18.769a5 5 0 0 0 -5.448.438 201.581 201.581 0 0 0 -54.828 65.118 150.207 150.207 0 0 1 2.006-35.816 148.614 148.614 0 0 1 5.472-21.445 5 5 0 0 0 -6.661-6.2 355.561 355.561 0 0 0 -39.9 19.588c-.085.049-.168.1-.25.152a276.384 276.384 0 0 0 -51.715 43.59q-.823.849-1.609 1.736-8.2 8.993-15.629 18.723l-.2.258a87.339 87.339 0 0 0 -10.873 18.688 4.994 4.994 0 0 0 -.271 3.1 96.5 96.5 0 0 0 25.928 46.677 45.979 45.979 0 0 1 -19-5.677 45.262 45.262 0 0 1 -5.622-3.721zm210.205-116.586a81.219 81.219 0 0 1 -11.7 3.168c-15.05 2.958-24.484 1.085-26.885-.458 1.625-2.315 9.535-7.539 24.333-10.508l12.37 6.729c.633.346 1.253.715 1.882 1.069zm-117.028 14.722a56.146 56.146 0 0 0 7.3-.443 28.378 28.378 0 0 0 8.287-2.217 160.48 160.48 0 0 0 1.328 40.873 50.241 50.241 0 0 0 -52.782-31.075q6.283-5.341 12.9-10.305c2 .531 4.044 1.014 6.143 1.426a88.722 88.722 0 0 0 16.824 1.741zm-11.895-11.017c1.015-.682 2.026-1.369 3.051-2.038 3.315-1.894 6.688-3.718 10.085-5.509 6.174 2.478 9.715 5.092 10.74 6.552-2.237 1.436-10.58 3.153-23.876.995zm24.341-13.219q3.771-1.817 7.585-3.544-1.02 3.9-1.828 7.814a29.4 29.4 0 0 0 -5.757-4.27zm-86.072 204.933-17.6-19.966v-26.551a146.744 146.744 0 0 0 21.217 37.16zm119.108 36.989c-62.836 0-115.9-42.618-131.818-100.465a57.242 57.242 0 0 0 31.172 3.328 5 5 0 0 0 2.184-8.887 87.908 87.908 0 0 1 -24.869-30.16 86.837 86.837 0 0 1 -6.5-17.594 77.693 77.693 0 0 1 4.236-8.064c-.011.431-.033.858-.033 1.291a4.414 4.414 0 0 0 8.827 0 41.28 41.28 0 0 1 4.735-19.229q6.96-8.22 14.545-15.823a41.52 41.52 0 0 1 63.827 35.052 4.414 4.414 0 0 0 8.827 0 50.228 50.228 0 0 0 -1.947-13.833 4.983 4.983 0 0 0 8.153-1.511 194.764 194.764 0 0 1 37.751-57.374 192.115 192.115 0 0 1 18.966-17.4l6.439 3.5a63.9 63.9 0 0 0 -11.571 4.989c-9.584 5.469-10.759 10.884-10.056 14.463s3.837 8.148 14.777 9.588a56.157 56.157 0 0 0 7.3.443 88.714 88.714 0 0 0 16.831-1.741 82.616 82.616 0 0 0 20.187-6.531 144.152 144.152 0 0 1 45.088 49.468 77.629 77.629 0 0 1 3.816 7.951 86.808 86.808 0 0 1 -8.948 32.354 87.909 87.909 0 0 1 -24.87 30.161 5 5 0 0 0 2.184 8.887 57.118 57.118 0 0 0 32.777-4.019c-15.694 58.194-68.925 101.156-132.01 101.156zm119.836-36.989-3.862-9.975v-.009a146.7 146.7 0 0 0 20.736-36.532v27.373zm61.26 70.727-19.517 19.517-19.516-19.517a27.631 27.631 0 0 1 0-39.031c.528-.528 1.115-1.054 1.793-1.611h35.449c.677.556 1.263 1.081 1.791 1.609a27.632 27.632 0 0 1 0 39.033z"></path></g></svg>