<!-- icon666.com - MILLIONS vector ICONS FREE --><svg viewBox="0 0 512 512" xmlns="http://www.w3.org/2000/svg"><g id="Layer_16" data-name="Layer 16"><path d="m89.408 218.009-19.084 137.03c-2.386 17.13 19.419 26.393 30.091 12.784a67.255 67.255 0 0 0 64.846 49.417h27.37l-78.622-199.231z" fill="#50bce5"></path><path d="m422.592 218.009 19.084 137.03c2.386 17.13-19.419 26.393-30.091 12.784a67.255 67.255 0 0 1 -64.846 49.417h-27.37l78.622-199.231z" fill="#50bce5"></path><path d="m194.965 156.646h122.07a80.669 80.669 0 0 1 80.665 80.669v61.035a141.7 141.7 0 0 1 -141.7 141.703 141.7 141.7 0 0 1 -141.7-141.7v-61.038a80.669 80.669 0 0 1 80.669-80.669z" fill="#f4dcc6"></path><path d="m256 429.744a141.7 141.7 0 0 1 -141.7-141.7v10.306a141.7 141.7 0 0 0 141.7 141.703 141.7 141.7 0 0 0 141.7-141.7v-10.312a141.7 141.7 0 0 1 -141.7 141.703z" fill="#c99673"></path><path d="m317.035 156.646h-122.069a80.669 80.669 0 0 0 -80.67 80.668v2.093h283.404v-2.093a80.668 80.668 0 0 0 -80.665-80.668z" fill="#c99673"></path><circle cx="180.915" cy="274.712" fill="#ecf0f1" r="45.967"></circle><path d="m180.914 228.745a45.966 45.966 0 0 0 -45.966 45.967h91.933a45.967 45.967 0 0 0 -45.967-45.967z" fill="#bdc3c7"></path><ellipse cx="180.914" cy="274.712" fill="#34495e" rx="31.319" ry="35.305"></ellipse><circle cx="331.085" cy="274.712" fill="#ecf0f1" r="45.967"></circle><path d="m331.085 228.745a45.967 45.967 0 0 0 -45.967 45.967h91.934a45.967 45.967 0 0 0 -45.967-45.967z" fill="#bdc3c7"></path><ellipse cx="331.085" cy="274.712" fill="#34495e" rx="31.319" ry="35.305"></ellipse><path d="m260.9 338.826 15.816-17.974a6.524 6.524 0 0 0 -4.9-10.833h-31.629a6.524 6.524 0 0 0 -4.9 10.833l15.816 17.974a6.524 6.524 0 0 0 9.797 0z" fill="#c99673"></path><g fill="#414141"><path d="m226.881 279.125a4.413 4.413 0 0 1 -4.413-4.413 41.554 41.554 0 1 0 -83.107 0 4.413 4.413 0 1 1 -8.826 0 50.38 50.38 0 1 1 100.759 0 4.413 4.413 0 0 1 -4.413 4.413z"></path><path d="m377.052 279.125a4.413 4.413 0 0 1 -4.413-4.413 41.554 41.554 0 1 0 -83.107 0 4.413 4.413 0 1 1 -8.826 0 50.38 50.38 0 1 1 100.759 0 4.413 4.413 0 0 1 -4.413 4.413z"></path><path d="m256 382.98a52.2 52.2 0 0 1 -36.231-14.608 4.413 4.413 0 0 1 6.107-6.372 43.427 43.427 0 0 0 60.247 0 4.413 4.413 0 1 1 6.109 6.371 52.206 52.206 0 0 1 -36.232 14.609z"></path></g><ellipse cx="317.024" cy="205.967" fill="#50bce5" rx="31.579" ry="10.629" transform="matrix(.866 -.5 .5 .866 -60.51 186.106)"></ellipse><path d="m253.594 36.564c-99.72 1.293-179.052 84.421-179.052 184.15v32.913a95.53 95.53 0 0 0 52.322 85.2v-120.818h97.486a74.186 74.186 0 0 0 53.55-22.847l21.865-22.809 33.247 27.1a82.5 82.5 0 0 0 52.128 18.555v120.818a95.53 95.53 0 0 0 52.322-85.2v-35.617a181.462 181.462 0 0 0 -183.868-181.445z" fill="#b7e2f8"></path><ellipse cx="256.003" cy="404.157" fill="#c99673" rx="13.666" ry="9.68"></ellipse><path d="m418.2 136.667q-2.172-4.323-4.565-8.509l-.187-.323q-2.262-3.943-4.715-7.756-.262-.408-.527-.813-2.325-3.582-4.815-7.041c-.24-.333-.477-.669-.72-1q-2.5-3.438-5.169-6.748c-.146-.184-.29-.369-.436-.551-35.194 22.216-85.35 36.127-141.066 36.127-55.386 0-105.26-13.754-140.42-35.739a185.771 185.771 0 0 0 -21.154 32.886c34.412 31.02 93.884 51.553 161.574 51.553 9.958 0 19.739-.446 29.291-1.3l14.476-15.1 13.811 11.258c43.547-7.999 80.416-24.846 104.622-46.944z" fill="#ecf0f1"></path></g></svg>